<?xml version="1.0" standalone="no"?>
<!DOCTYPE svg PUBLIC "-//W3C//DTD SVG 20010904//EN"
 "http://www.w3.org/TR/2001/REC-SVG-20010904/DTD/svg10.dtd">
<svg version="1.0" xmlns="http://www.w3.org/2000/svg"
 width="1024.000000pt" height="1024.000000pt" viewBox="0 0 1024.000000 1024.000000"
 preserveAspectRatio="xMidYMid meet">
<metadata>
Created by potrace 1.14, written by Peter Selinger 2001-2017
</metadata>
<g transform="translate(0.000000,1024.000000) scale(0.100000,-0.100000)"
fill="#000000" stroke="none">
<path d="M0 5120 l0 -5120 5120 0 5120 0 0 5120 0 5120 -1995 0 -1995 0 0 -80
0 -80 44 0 c44 0 44 0 51 -40 6 -38 9 -40 41 -40 l34 0 0 -85 c0 -84 0 -85 25
-85 24 0 25 -2 25 -75 l0 -75 50 0 50 0 0 -62 c0 -91 7 -108 41 -108 28 0 29
-2 29 -44 0 -24 3 -57 6 -74 6 -28 10 -30 64 -36 l57 -7 7 -46 c3 -25 6 -79 6
-119 l0 -74 35 0 35 0 0 -100 0 -100 30 0 c30 0 30 -1 30 -54 0 -56 8 -66 51
-66 17 0 19 -8 19 -70 l0 -70 34 0 c30 0 34 -4 40 -31 3 -17 6 -49 6 -70 0
-38 1 -39 34 -39 l34 0 7 -89 7 -90 37 -3 c29 -2 37 -8 39 -25 3 -22 8 -23 78
-23 l74 0 0 -42 0 -43 114 3 114 3 7 -50 7 -51 124 0 124 0 0 -47 0 -48 120 3
120 4 0 -51 0 -51 140 0 140 0 0 -40 0 -39 93 -3 92 -3 3 -37 3 -38 153 0
c117 0 154 -3 153 -12 -2 -65 0 -68 53 -68 49 0 50 -1 50 -30 l0 -30 60 0 60
0 0 -30 0 -30 80 0 c76 0 80 -1 80 -22 0 -35 12 -46 50 -50 31 -3 35 -7 38
-34 3 -30 6 -32 57 -39 52 -6 54 -8 57 -38 3 -29 7 -32 43 -37 38 -5 40 -7 43
-42 3 -37 4 -38 41 -38 37 0 39 -1 45 -40 6 -41 10 -43 59 -40 25 1 27 -1 27
-34 0 -35 1 -36 40 -36 l40 0 0 -75 0 -75 35 0 35 0 0 -206 0 -205 -32 3 -33
3 -6 150 c-4 83 -7 151 -8 153 -3 5 -41 1 -41 -5 0 -4 10 -17 22 -30 l21 -23
-31 0 c-27 0 -32 4 -32 24 0 45 -18 79 -40 73 -27 -7 -25 1 3 13 19 9 18 10
-10 7 -23 -2 -33 1 -33 10 0 7 -7 14 -15 14 -8 1 -19 3 -25 4 -5 1 -16 3 -22
4 -9 1 -9 4 2 10 8 6 27 7 42 4 24 -5 28 -2 28 15 0 25 -28 42 -69 42 -21 0
-31 5 -31 16 0 8 5 12 10 9 6 -4 10 5 10 19 0 14 -3 25 -7 25 -5 -1 -36 -1
-71 0 -55 1 -64 4 -71 24 -10 26 11 36 34 17 12 -10 15 -9 15 3 0 23 -11 27
-79 29 l-61 2 0 38 c0 37 -1 38 -34 38 -19 0 -37 -6 -39 -12 -3 -7 -6 6 -6 29
-1 25 4 43 12 46 11 4 -7 8 -98 22 -30 5 -33 8 -26 28 6 16 19 24 47 28 31 5
24 6 -32 8 -114 2 -134 8 -134 42 0 29 0 29 -65 29 l-65 0 0 29 0 29 -88 7
c-88 7 -89 8 -84 32 4 22 9 24 43 21 22 -2 39 0 39 4 0 5 -11 8 -25 8 -13 0
-58 5 -99 11 -74 11 -75 12 -78 43 l-3 31 -200 11 c-110 6 -184 12 -165 14 19
1 38 2 43 1 4 0 7 10 7 23 0 21 -6 24 -52 30 -29 3 -124 6 -210 6 l-158 0 0
40 0 40 -254 0 -253 0 4 35 3 35 -75 0 -75 0 0 35 0 35 -452 1 c-249 0 -447 3
-440 6 6 2 12 20 12 39 l0 34 -977 -1 c-538 -1 -966 -4 -952 -6 21 -3 26 -9
22 -24 -5 -18 -15 -23 -40 -20 -26 4 -12 -9 19 -17 21 -6 -112 -10 -372 -11
-223 -1 -414 -4 -425 -6 -11 -2 -33 -4 -50 -4 -16 -1 -25 -5 -19 -9 6 -4 13
-15 17 -24 5 -14 18 -18 58 -18 29 0 50 -2 47 -5 -2 -3 -101 -5 -219 -6 -189
0 -211 -2 -189 -14 24 -14 24 -14 3 -15 -16 0 -21 -4 -16 -16 3 -8 12 -13 19
-10 8 3 14 2 14 -3 0 -5 -155 -10 -345 -13 -190 -2 -347 -7 -350 -10 -12 -11
7 -37 22 -31 10 4 14 2 10 -5 -4 -6 1 -12 10 -14 22 -5 -350 -22 -467 -22 -47
0 -66 -1 -42 -3 23 -2 42 -8 42 -14 0 -5 18 -9 40 -9 22 0 40 5 40 10 0 6 12
-1 28 -15 15 -14 35 -24 45 -21 9 2 15 0 11 -5 -3 -5 -72 -9 -155 -9 -129 0
-149 -2 -149 -16 0 -10 -6 -14 -17 -10 -10 2 -45 6 -78 9 -33 2 -48 2 -32 0
15 -2 27 -11 27 -19 0 -9 10 -14 28 -14 15 -1 38 -7 52 -15 22 -13 -8 -14
-265 -15 -325 0 -515 -8 -530 -21 -5 -5 -20 -9 -35 -9 -20 0 -22 -2 -10 -10
12 -8 8 -10 -15 -11 -29 -1 -29 -2 10 -14 l40 -13 -42 -1 c-50 -1 -73 7 -73
24 0 11 -5 11 -27 0 -20 -10 -30 -25 -33 -47 -4 -25 -11 -34 -29 -36 -21 -3
-23 -1 -19 27 2 17 1 31 -4 31 -9 0 -10 -3 -12 -42 -2 -37 -5 -39 -80 -48 -37
-4 -72 -15 -81 -24 -9 -9 -27 -16 -40 -16 -14 0 -25 -7 -28 -20 -3 -12 -14
-20 -29 -21 -21 -1 -21 -2 -3 -7 26 -9 26 -33 0 -43 -33 -13 -37 -10 -33 21 3
17 1 30 -4 30 -4 0 -8 -29 -8 -65 l0 -65 -35 0 c-34 0 -35 -1 -36 -37 -1 -41
-16 -101 -18 -70 -1 9 -6 17 -12 17 -7 0 -5 -10 5 -25 19 -29 21 -46 4 -44 -7
1 -23 1 -35 0 -23 -1 -23 -3 -23 -149 0 -82 3 -197 7 -255 l6 -107 29 0 c15 0
28 -4 28 -10 0 -5 13 -7 30 -3 25 4 30 2 30 -13 0 -16 -2 -17 -10 -4 -8 11 -9
8 -4 -12 4 -20 2 -28 -7 -29 -8 -1 -3 -4 11 -8 20 -5 26 -14 28 -41 2 -19 8
-39 13 -45 5 -5 9 -17 9 -26 0 -10 8 -20 18 -22 14 -4 14 -5 -3 -6 -13 -1 -6
-7 20 -17 22 -8 50 -12 63 -9 21 5 22 2 22 -45 0 -33 -4 -50 -12 -51 -7 0 1
-5 18 -10 25 -7 33 -15 37 -41 2 -19 0 -36 -7 -40 -6 -4 1 -8 16 -8 40 0 59
-10 69 -38 7 -18 6 -27 -2 -33 -8 -4 4 -12 29 -19 30 -8 46 -19 57 -40 l16
-30 -61 0 -60 0 0 40 0 40 -40 0 -40 0 0 43 0 43 -40 -4 -40 -4 0 55 c0 35 5
57 12 60 7 3 -8 3 -34 0 l-48 -6 0 31 c0 50 -9 62 -46 62 -30 0 -34 3 -33 23
5 58 1 67 -36 67 -32 0 -35 3 -35 29 0 15 -3 49 -6 75 -6 44 -8 46 -40 46
l-34 0 0 365 0 365 40 0 40 0 0 46 c0 45 0 45 33 42 30 -3 32 -1 35 30 3 29 6
32 37 32 31 0 34 3 40 40 6 38 9 40 41 40 32 0 34 2 34 35 l0 35 80 0 80 0 0
46 0 45 95 -3 95 -3 0 43 0 42 205 0 205 0 0 40 0 40 85 0 85 0 0 40 0 40 230
0 230 0 0 50 0 50 115 0 115 0 0 45 0 45 229 0 230 0 3 48 3 47 37 -2 c36 -2
37 -2 44 42 l6 45 84 0 84 0 0 55 0 55 40 0 c38 0 40 -2 40 -30 0 -23 5 -31
25 -36 41 -10 58 2 50 36 l-7 30 107 0 c114 0 128 5 141 53 3 15 9 26 13 25 3
0 22 0 42 1 l36 1 -7 41 -8 41 109 -7 c89 -6 109 -5 109 6 0 11 2 11 10 -1 5
-8 10 -10 10 -4 0 7 19 9 55 6 l55 -4 0 41 c0 38 2 41 28 41 15 1 107 0 205 0
l177 -1 0 46 c0 45 0 45 34 45 40 0 46 14 46 103 l0 57 38 1 c20 1 51 0 69 -1
39 -2 45 15 41 115 -3 60 -5 70 -20 67 -11 -2 -18 3 -18 12 0 9 -6 13 -14 10
-15 -6 -21 7 -31 74 -8 48 -9 49 -19 9 -4 -19 -3 -26 4 -22 5 3 10 -1 10 -11
0 -13 -7 -15 -35 -10 -19 3 -51 9 -70 12 -29 5 -35 11 -35 30 0 19 5 24 26 24
23 0 25 -2 14 -15 -11 -13 -15 -13 -21 -3 -7 10 -9 9 -9 -4 0 -12 8 -18 23
-18 26 0 80 71 59 78 -6 2 -12 12 -12 23 0 17 8 19 75 19 l75 0 0 45 0 45 69
0 c46 0 71 4 74 13 3 7 6 5 6 -5 1 -14 10 -18 46 -18 l45 0 0 45 0 45 -41 0
c-33 0 -40 3 -35 16 3 9 6 24 6 35 0 18 11 19 213 21 l212 3 1 40 1 40 -83 -3
-84 -3 0 47 c0 53 -17 73 -62 74 -17 0 -28 5 -28 14 0 8 -5 16 -11 18 -7 2 -9
13 -5 26 6 17 13 21 27 17 11 -4 19 -2 19 5 0 6 -4 8 -10 5 -6 -4 -10 7 -10
24 0 17 5 31 11 31 5 0 7 -6 3 -12 -6 -10 -4 -10 7 -2 8 6 21 14 29 17 11 3 8
7 -10 15 -14 6 -19 11 -12 11 6 1 12 6 12 12 0 7 -11 9 -30 6 -32 -7 -51 9
-29 24 9 7 1 9 -26 7 -26 -2 -39 -8 -38 -15 2 -7 -4 -13 -12 -13 -8 0 -14 6
-12 13 1 8 -14 13 -43 15 l-46 3 4 35 4 35 69 -7 c65 -6 69 -5 69 14 0 25 20
72 30 72 8 0 20 -35 20 -57 0 -7 -5 -12 -11 -10 -6 1 -13 -6 -14 -15 -4 -21
30 -25 38 -5 4 10 6 10 6 0 1 -16 21 -17 21 -2 0 7 -8 18 -18 25 -14 10 -16
25 -14 76 1 35 7 75 13 90 17 42 6 58 -41 58 l-40 0 0 -80 0 -80 -30 0 c-28 0
-30 2 -30 40 l0 40 -40 0 -40 0 0 40 0 40 -40 0 -40 0 0 -40 c0 -38 -2 -40
-30 -40 -28 0 -30 2 -30 40 l0 40 -2270 0 -2270 0 0 -5120z m3974 4929 c-1
-88 3 -127 12 -136 18 -19 20 -17 23 29 3 56 11 63 11 10 0 -41 1 -42 35 -42
33 0 35 -2 35 -31 0 -30 -2 -31 -30 -25 -17 3 -30 1 -30 -4 0 -6 -10 -10 -22
-10 -37 0 -50 -15 -50 -54 0 -28 -4 -36 -19 -37 -10 -1 -24 -2 -31 -3 -7 0
-12 -11 -11 -23 1 -36 5 -40 12 -14 6 23 41 39 41 19 0 -6 -7 -8 -15 -4 -17 6
-18 4 -9 -18 3 -9 10 -13 15 -10 5 3 9 1 9 -5 0 -5 -29 -12 -64 -16 l-63 -7
-7 -52 c-3 -28 -6 -79 -6 -113 0 -62 -1 -63 -27 -64 -28 -2 -28 -2 -3 -6 23
-3 25 -8 22 -38 -4 -33 -6 -35 -43 -35 -39 0 -39 0 -39 -40 0 -39 -1 -40 -35
-40 -19 0 -35 -4 -35 -10 0 -5 4 -10 9 -10 5 0 7 -15 4 -32 -4 -18 -6 -50 -7
-70 0 -36 -2 -38 -33 -38 -32 0 -33 -1 -33 -40 0 -38 -2 -40 -29 -40 -27 0
-30 -3 -33 -37 -2 -25 -8 -38 -18 -39 -8 -1 -21 -2 -27 -3 -7 0 -14 -16 -15
-33 -1 -18 -4 -6 -7 27 -7 65 1 85 30 85 17 0 19 8 19 75 l0 75 30 0 30 0 0
80 0 80 35 0 c34 0 35 1 35 40 l0 40 55 0 55 0 0 119 0 120 33 3 c29 3 32 6
35 41 3 35 5 37 37 37 32 0 34 2 37 38 3 34 6 37 36 40 l32 3 0 175 c0 96 3
173 8 171 4 -3 7 -61 6 -128z m46 20 c0 -5 -4 -8 -9 -4 -5 3 -12 -3 -14 -12
-4 -14 -5 -13 -6 5 -1 13 5 22 14 22 8 0 15 -5 15 -11z m-5 -59 c3 -5 1 -10
-4 -10 -6 0 -11 5 -11 10 0 6 2 10 4 10 3 0 8 -4 11 -10z m135 -44 c0 -2 -9
-6 -20 -9 -11 -3 -20 -1 -20 4 0 5 9 9 20 9 11 0 20 -2 20 -4z m650 -110 c0
-11 -19 -15 -25 -6 -3 5 1 10 9 10 9 0 16 -2 16 -4z m-200 -61 c0 -33 -2 -35
-35 -35 -32 0 -35 3 -35 28 0 36 6 42 42 42 25 0 28 -3 28 -35z m120 -9 c0 -8
8 -17 18 -19 13 -4 11 -5 -5 -6 -13 0 -23 1 -23 3 0 2 -3 11 -6 20 -3 9 -1 16
5 16 6 0 11 -6 11 -14z m-40 -73 l0 -41 88 0 87 1 0 -34 0 -34 -162 -3 -163
-2 0 -40 0 -40 -70 0 -70 0 1 53 c1 28 3 44 6 35 3 -12 14 -18 35 -18 30 0 31
1 25 40 l-5 40 79 0 79 0 0 39 c0 41 5 46 45 46 23 0 25 -4 25 -42z m197 -45
c-3 -8 -6 -5 -6 6 -1 11 2 17 5 13 3 -3 4 -12 1 -19z m-701 -127 c7 -1 14 -8
18 -16 4 -12 -3 -15 -29 -15 -28 0 -35 4 -35 19 0 13 6 18 18 16 9 -2 22 -4
28 -4z m481 -163 c-3 -8 -6 -5 -6 6 -1 11 2 17 5 13 3 -3 4 -12 1 -19z m-20
-4 c-3 -3 -12 -4 -19 -1 -8 3 -5 6 6 6 11 1 17 -2 13 -5z m-268 -366 c0 -18
-3 -27 -6 -20 -3 9 -12 7 -33 -8 l-28 -20 -4 35 c-4 36 2 41 50 44 19 1 22 -4
21 -31z m-812 -30 c-3 -7 -5 -2 -5 12 0 14 2 19 5 13 2 -7 2 -19 0 -25z m-97
-179 l0 -81 -35 4 c-33 4 -35 3 -35 -28 0 -17 -3 -52 -6 -78 -6 -44 -8 -46
-40 -46 -34 0 -34 0 -34 -46 l0 -46 -40 7 -40 7 0 -46 c0 -41 -2 -46 -22 -46
-40 0 -51 14 -44 54 6 30 11 36 41 42 l34 6 3 67 c2 36 7 65 13 65 76 -10 97
-11 83 -7 -14 3 -18 16 -18 59 l0 54 35 0 35 0 0 48 c0 75 8 92 41 92 l29 0 0
-81z m363 -176 c-29 -2 -77 -2 -105 0 -29 2 -6 3 52 3 58 0 81 -1 53 -3z m27
-43 c0 -15 -6 -20 -27 -19 l-28 1 25 8 c18 6 0 9 -60 11 l-85 3 85 6 c47 3 86
7 88 8 1 1 2 -7 2 -18z m-400 -120 c0 -5 -12 -10 -27 -9 l-28 1 25 8 c14 4 26
8 28 9 1 1 2 -3 2 -9z m-613 -696 c-3 -3 -12 -4 -19 -1 -8 3 -5 6 6 6 11 1 17
-2 13 -5z m5408 -54 c3 -5 1 -10 -4 -10 -6 0 -11 5 -11 10 0 6 2 10 4 10 3 0
8 -4 11 -10z m-6230 -80 c3 -5 1 -10 -4 -10 -6 0 -11 5 -11 10 0 6 2 10 4 10
3 0 8 -4 11 -10z m-757 -107 c-10 -2 -28 -2 -40 0 -13 2 -5 4 17 4 22 1 32 -1
23 -4z m85 0 c-13 -2 -33 -2 -45 0 -13 2 -3 4 22 4 25 0 35 -2 23 -4z m7531
-29 c28 -11 19 -39 -14 -41 -26 -2 -30 1 -30 22 0 25 13 31 44 19z m-4126 -71
c-10 -2 -28 -2 -40 0 -13 2 -5 4 17 4 22 1 32 -1 23 -4z m9 -90 c-3 -10 -5 -2
-5 17 0 19 2 27 5 18 2 -10 2 -26 0 -35z m-127 17 c0 -5 -2 -10 -4 -10 -3 0
-8 5 -11 10 -3 6 -1 10 4 10 6 0 11 -4 11 -10z m-28 -28 c1 -15 2 -35 2 -45 2
-22 31 -41 52 -33 8 3 14 1 14 -4 0 -6 5 -10 10 -10 6 0 10 9 10 20 0 11 7 20
15 20 7 0 19 8 24 18 10 16 10 16 11 -1 0 -10 5 -15 10 -12 6 4 10 -9 10 -32
0 -21 3 -62 6 -90 l7 -53 -115 0 c-86 0 -116 3 -115 13 2 68 3 67 -78 67 l-75
0 0 30 c0 21 5 30 18 31 9 1 24 2 32 3 10 1 14 10 13 26 -5 58 3 69 60 72 28
2 60 4 69 5 13 1 18 -6 20 -25z m427 -76 c-1 -55 -4 -114 -8 -131 -6 -29 -8
-30 -83 -39 -42 -5 -82 -7 -90 -4 -10 4 -12 27 -10 97 3 86 5 91 25 92 12 0
16 3 10 6 -7 2 -13 15 -13 28 0 13 -4 27 -10 30 -29 18 -2 26 85 24 l95 -2 -1
-101z m416 96 l51 -2 -4 -41 -4 -41 33 4 c33 3 34 2 37 -39 3 -40 5 -43 32
-43 25 0 29 4 35 40 l7 41 76 -5 c43 -2 89 -5 105 -5 27 -1 41 -31 15 -31 -25
0 17 -20 42 -20 14 0 32 -5 40 -10 10 -7 -19 -10 -98 -8 l-112 3 0 -42 0 -43
-75 0 -75 0 0 39 c0 39 -1 40 -35 38 -35 -2 -35 -2 -35 -48 l0 -47 -75 -7
c-41 -4 -88 -4 -105 0 -33 7 -30 -7 -35 170 l-3 100 66 -1 c37 0 90 -1 117 -2z
m-1045 -17 c0 -8 -4 -15 -10 -15 -5 0 -10 7 -10 15 0 8 5 15 10 15 6 0 10 -7
10 -15z m790 -96 c0 -60 4 -108 9 -105 4 3 6 -6 3 -19 -4 -22 -1 -25 27 -25
30 0 31 -2 31 -40 l0 -40 -110 0 -110 0 0 40 c0 39 1 40 36 40 31 0 35 3 33
23 -2 12 0 28 4 35 5 7 3 12 -4 12 -10 0 -10 3 -1 12 7 7 12 29 12 50 0 34 3
38 28 39 l27 2 -27 4 c-25 4 -28 8 -26 44 1 37 3 39 35 39 l33 0 0 -111z m680
1 c0 -5 -5 -10 -11 -10 -5 0 -7 5 -4 10 3 6 8 10 11 10 2 0 4 -4 4 -10z m40 0
c0 -5 -5 -10 -11 -10 -5 0 -7 5 -4 10 3 6 8 10 11 10 2 0 4 -4 4 -10z m1150
-142 c0 -18 1 -107 3 -198 2 -91 2 -173 -1 -182 -3 -13 -14 -18 -40 -18 l-35
0 6 98 c4 53 7 150 7 215 l0 117 30 0 c27 0 30 -3 30 -32z m-2727 -14 c35 -6
37 -8 37 -45 l0 -39 -89 0 -89 0 0 38 c0 20 2 40 5 45 5 9 84 9 136 1z m1805
-43 l3 -44 -77 6 c-42 4 -97 7 -121 7 l-43 0 0 40 0 41 118 -3 117 -3 3 -44z
m-1958 -47 c0 -66 -2 -75 -17 -73 -48 4 -72 -1 -67 -16 5 -11 2 -13 -10 -9 -9
3 -13 10 -10 15 3 5 -2 9 -11 9 -9 0 -14 -4 -10 -9 3 -5 1 -12 -5 -16 -6 -4
-10 13 -10 44 0 42 3 51 18 51 26 0 39 -12 45 -40 3 -19 5 -15 6 13 1 34 3 37
31 37 28 0 30 3 30 35 0 19 2 35 5 35 3 0 5 -34 5 -76z m1168 50 c4 3 8 -4 8
-14 0 -10 -8 -21 -18 -23 -15 -4 -18 1 -18 31 1 30 2 34 11 19 6 -9 13 -15 17
-13z m833 -4 c10 0 19 -7 19 -15 0 -9 -9 -15 -22 -15 -18 0 -23 6 -24 28 -1
15 1 21 3 15 3 -7 13 -13 24 -13z m-2031 -23 c8 -3 3 -6 -12 -6 -22 -1 -28 3
-28 21 0 19 2 20 13 6 6 -9 19 -18 27 -21z m10 23 c0 -5 -4 -10 -10 -10 -5 0
-10 5 -10 10 0 6 5 10 10 10 6 0 10 -4 10 -10z m268 -27 c-10 -2 -26 -2 -35 0
-10 3 -2 5 17 5 19 0 27 -2 18 -5z m260 -38 c0 -33 -2 -35 -34 -35 -32 0 -34
2 -34 35 0 33 2 35 34 35 32 0 34 -2 34 -35z m1519 8 c0 -39 5 -47 14 -23 8
23 8 22 5 -7 -2 -29 1 -33 21 -33 13 0 23 4 23 10 0 5 -6 7 -13 4 -8 -3 -14 2
-14 11 0 9 6 14 13 11 7 -3 15 3 17 12 3 9 5 2 6 -15 1 -27 5 -33 24 -34 22
-2 22 -2 -2 -6 -18 -4 -22 -10 -18 -29 3 -20 0 -24 -19 -24 -17 0 -24 7 -27
28 l-4 27 -2 -28 c-1 -20 5 -30 22 -37 20 -8 19 -9 -11 -9 -29 -1 -33 2 -27
20 4 11 4 31 1 45 -5 20 -13 24 -41 24 -33 0 -35 2 -35 35 0 33 2 35 34 35 25
0 33 -4 33 -17z m56 10 c-7 -2 -21 -2 -30 0 -10 3 -4 5 12 5 17 0 24 -2 18 -5z
m1057 -15 c0 -9 4 -8 10 2 7 10 10 -16 10 -82 l0 -98 -30 0 -30 0 0 95 c0 88
1 95 20 95 11 0 20 -6 20 -12z m-3970 -222 c0 -234 -1 -239 -42 -228 -17 4
-18 23 -18 228 l0 224 30 0 30 0 0 -224z m1110 154 c0 -28 -2 -30 -39 -30 -44
0 -55 10 -46 40 5 16 15 20 46 20 37 0 39 -2 39 -30z m140 -9 c0 -35 -3 -39
-30 -43 -29 -4 -30 -4 -30 39 0 41 1 43 30 43 28 0 30 -2 30 -39z m1178 0 c4
-38 -8 -50 -44 -43 -19 3 -24 10 -24 36 0 40 7 48 40 44 20 -2 26 -9 28 -37z
m154 8 c-4 -28 -7 -30 -41 -27 -31 3 -36 7 -39 31 -3 26 -1 27 41 27 43 0 43
0 39 -31z m146 -16 c-3 -43 -6 -48 -28 -50 l-25 -2 25 8 c25 7 25 7 3 13 -19
5 -23 13 -23 42 0 32 3 36 26 36 24 0 25 -2 22 -47z m-1790 -3 c-1 -37 -3 -40
-30 -40 -26 0 -28 3 -28 40 0 38 2 40 30 40 28 0 30 -2 28 -40z m-311 -42 c-3
-8 -6 -5 -6 6 -1 11 2 17 5 13 3 -3 4 -12 1 -19z m1213 -39 c0 -33 3 -37 30
-41 16 -2 32 0 34 6 2 6 5 -24 5 -66 l1 -78 35 0 35 0 0 -217 c0 -120 3 -262
7 -315 l6 -98 29 0 28 0 0 -121 0 -120 -32 3 c-32 3 -33 2 -32 -34 0 -37 -1
-38 -35 -39 -31 -2 -32 -3 -8 -6 24 -4 28 -9 25 -31 -4 -39 -38 -43 -39 -5
l-1 28 -7 -30 c-6 -29 -7 -30 -76 -33 -39 -2 -103 0 -143 3 l-74 7 4 34 c2 19
0 34 -4 34 -4 0 -8 18 -8 41 0 40 -1 40 -32 37 l-33 -3 -3 118 -3 117 26 0
c14 0 26 -6 26 -12 1 -7 5 5 10 27 4 22 8 154 8 293 l1 252 25 0 c14 0 28 0
33 0 10 -1 20 73 21 158 l1 72 35 0 c33 0 35 2 35 34 0 30 3 35 28 38 33 4 42
-7 42 -53z m2020 -69 l0 -100 -30 0 -30 0 0 100 0 100 30 0 30 0 0 -100z
m-2741 58 c5 -13 11 -22 15 -20 3 1 17 2 31 2 21 0 25 -5 25 -27 0 -23 5 -28
27 -30 15 0 32 -7 37 -15 7 -7 25 -12 44 -10 36 4 42 -12 16 -44 -8 -10 -13
-13 -9 -6 3 6 2 12 -3 12 -5 0 -9 -22 -9 -48 1 -61 -6 -72 -49 -72 -20 0 -33
-4 -29 -10 3 -5 13 -6 22 -3 15 6 16 5 3 -9 -8 -9 -18 -14 -21 -12 -4 2 -9 -5
-12 -16 -3 -14 -14 -20 -31 -20 -22 0 -26 -4 -26 -30 0 -20 -7 -33 -22 -41
-29 -15 -38 -28 -38 -56 0 -19 -6 -23 -30 -23 -27 0 -30 -3 -30 -34 0 -31 -3
-34 -37 -40 -21 -3 -66 -6 -100 -6 -66 0 -69 -3 -57 -47 6 -22 11 -23 95 -23
l89 0 0 30 c0 23 4 30 20 30 15 0 20 7 20 25 0 23 4 25 40 25 39 0 40 1 40 35
0 33 2 35 34 35 33 0 35 2 38 38 3 32 7 37 31 40 18 2 27 9 27 21 0 17 31 61
43 61 4 0 4 -7 1 -15 -5 -11 1 -15 19 -15 14 0 29 -4 32 -10 3 -5 -3 -10 -14
-10 -16 0 -21 -6 -21 -25 0 -19 4 -23 18 -19 16 5 16 5 0 -9 -10 -8 -18 -23
-18 -33 0 -29 -12 -41 -47 -49 -28 -6 -33 -11 -33 -36 0 -27 3 -29 35 -29 l35
0 0 -119 0 -120 -37 -3 c-38 -3 -38 -3 -41 -50 -3 -46 -5 -48 -33 -48 -27 0
-29 -2 -29 -40 0 -37 -2 -40 -27 -41 -16 -1 -31 -1 -35 0 -5 0 -8 -17 -8 -39
0 -39 -1 -40 -35 -40 -32 0 -35 -2 -35 -29 0 -20 6 -31 18 -34 13 -4 11 -5 -5
-6 -22 -1 -23 -5 -23 -71 l0 -70 -34 0 c-36 0 -46 -12 -46 -56 0 -21 -5 -24
-33 -24 l-34 0 -6 167 c-4 91 -7 201 -7 245 l0 78 -45 0 c-45 0 -45 0 -45 35
l0 35 75 0 c65 0 75 -2 74 -17 0 -11 -3 -13 -6 -5 -2 6 -12 12 -21 11 -11 0
-12 -2 -4 -6 6 -2 12 -11 12 -19 0 -8 5 -14 11 -14 6 0 9 -7 5 -15 -3 -8 -1
-15 4 -15 6 0 10 15 11 33 0 17 3 53 5 80 l5 47 -125 0 -126 0 0 29 c0 29 2
30 40 27 l40 -3 0 43 0 44 -39 0 c-38 0 -38 0 -44 45 -5 51 -14 66 -26 47 -6
-9 -12 -3 -22 20 l-14 33 -6 -30 c-5 -21 -7 -11 -8 35 -1 36 -4 82 -7 103 -7
37 -7 37 29 37 33 0 36 -2 39 -32 3 -31 6 -33 45 -36 39 -3 43 -5 49 -38 l6
-34 134 0 134 0 0 35 0 35 -52 0 c-29 0 -70 3 -90 6 -34 6 -38 10 -38 35 0 28
-2 29 -45 29 l-45 0 0 45 0 45 40 0 40 0 0 43 c0 31 3 38 10 27 6 -10 10 -11
10 -2 0 8 24 13 83 14 45 1 63 3 40 5 -50 5 -58 23 -10 24 33 1 31 3 -15 13
-23 5 -28 12 -28 36 l0 30 80 0 c74 0 81 -2 89 -22z m1512 5 c0 -15 2 -15 9 2
8 18 9 17 9 -7 1 -19 6 -28 19 -29 9 0 -5 -7 -33 -14 -27 -7 -42 -13 -31 -14
12 -1 16 -6 12 -16 -4 -11 1 -15 18 -15 12 0 26 3 30 7 11 11 46 14 46 3 0 -6
17 -10 39 -10 l38 0 7 -70 c4 -39 11 -68 16 -65 5 3 12 0 16 -6 4 -8 3 -9 -5
-5 -6 4 -14 0 -17 -8 -4 -11 -19 -16 -45 -16 -38 0 -39 -1 -39 -35 l0 -35 -80
0 -80 0 0 -37 0 -38 152 5 153 5 3 68 3 67 48 0 c32 0 53 -5 62 -16 12 -14 14
-14 20 3 5 13 8 7 8 -19 1 -29 5 -38 19 -39 15 -1 15 -2 1 -6 -16 -4 -29 -49
-29 -104 0 -20 -6 -28 -25 -33 -14 -4 -30 -4 -35 -1 -6 4 -10 -11 -10 -34 l0
-41 -71 0 -70 0 3 -42 c3 -40 5 -42 33 -43 l30 0 -4 -67 -3 -68 41 0 c38 0 40
-1 32 -22 -8 -21 -15 -23 -70 -21 -68 1 -65 6 -61 -85 1 -24 -1 -81 -5 -127
-7 -81 -8 -82 -34 -81 -26 1 -26 1 -29 -81 -2 -67 -6 -83 -18 -83 -10 0 -14
-6 -10 -15 3 -9 0 -15 -8 -15 -8 0 -17 6 -19 13 -3 6 -6 -1 -6 -16 -1 -18 -5
-26 -12 -21 -6 3 -8 17 -5 29 8 30 -3 57 -18 48 -7 -4 -7 -1 1 8 8 9 12 39 10
72 l-2 57 -37 0 c-38 0 -38 0 -38 40 l0 40 -50 0 c-47 0 -49 1 -38 19 7 11 15
18 19 16 3 -3 4 7 1 20 -3 20 -10 25 -33 25 -28 0 -29 2 -29 45 0 43 -1 45
-30 45 -28 0 -30 3 -30 35 0 35 -6 39 -56 38 -11 0 -24 110 -24 200 0 36 1 37
39 37 34 0 38 3 34 20 -3 11 -12 20 -19 20 -19 0 -34 41 -34 91 0 24 -4 38
-10 34 -6 -4 -10 10 -10 34 0 37 2 41 25 41 23 0 25 -4 25 -40 0 -39 1 -40 35
-40 34 0 35 -1 35 -40 l0 -40 44 0 c35 0 46 4 51 19 9 31 -5 51 -36 51 -27 0
-29 3 -29 40 l0 40 -40 0 -40 0 0 45 c0 43 -1 45 -30 45 -25 0 -30 4 -29 23 0
23 17 70 18 52 1 -15 40 -13 45 2 4 9 -5 13 -29 13 -32 0 -35 2 -35 31 l0 30
58 -6 c41 -5 53 -3 42 4 -13 9 -12 11 3 11 10 0 15 5 12 10 -3 6 0 11 7 11 7
1 -3 5 -22 9 -31 7 -32 7 -7 9 19 1 27 6 27 19 0 10 3 22 7 25 3 4 51 7 105 7
86 0 98 -2 99 -17z m1447 -36 c3 -38 3 -38 -30 -35 -26 2 -34 8 -36 26 -6 38
5 54 35 50 24 -3 28 -8 31 -41z m-4413 -19 c4 0 11 6 16 13 12 21 21 -11 17
-62 -3 -42 -5 -44 -35 -47 l-33 -3 0 54 c0 54 8 76 20 56 4 -6 11 -11 15 -11z
m3052 16 c-3 -3 -12 -4 -19 -1 -8 3 -5 6 6 6 11 1 17 -2 13 -5z m-2850 -96
c-2 -13 -4 -3 -4 22 0 25 2 35 4 23 2 -13 2 -33 0 -45z m4282 -308 c-1 -326
-3 -360 -18 -358 -13 2 -17 -7 -19 -46 l-3 -49 65 7 66 6 0 -35 0 -35 -80 0
-80 0 0 -80 0 -80 -35 0 -35 0 0 110 c0 109 0 110 24 110 21 0 25 6 31 48 4
26 9 208 11 405 l4 357 35 0 35 0 -1 -360z m-1222 283 c-3 -10 -5 -4 -5 12 0
17 2 24 5 18 2 -7 2 -21 0 -30z m850 -12 c11 9 13 -13 13 -127 0 -174 3 -184
44 -184 l32 0 0 -200 1 -200 -34 0 -33 0 0 201 0 201 -27 -6 c-34 -7 -58 6
-50 27 3 9 7 67 8 130 2 135 7 173 22 158 7 -7 15 -7 24 0z m149 -9 c5 1 10
-15 12 -37 2 -33 0 -37 -9 -22 -10 18 -12 18 -30 1 -10 -9 -19 -13 -20 -8 0 5
-2 23 -5 41 -3 24 0 32 14 35 9 2 20 0 23 -5 3 -5 10 -7 15 -5z m-3174 0 c-12
-8 -72 -4 -72 4 0 2 19 4 43 4 25 0 37 -4 29 -8z m2178 -8 c0 -2 -18 -4 -40
-4 -22 0 -40 3 -40 8 0 4 18 6 40 4 22 -2 40 -6 40 -8z m-3063 -86 c-3 -8 -6
-5 -6 6 -1 11 2 17 5 13 3 -3 4 -12 1 -19z m2970 16 c-3 -3 -12 -4 -19 -1 -8
3 -5 6 6 6 11 1 17 -2 13 -5z m3611 -112 l3 -114 -33 4 c-41 4 -46 17 -47 125
-1 88 9 106 54 100 18 -2 20 -11 23 -115z m-2557 71 c-9 -16 -10 -14 -11 12 0
21 3 26 11 18 8 -8 8 -16 0 -30z m-4160 -332 c0 -172 -2 -316 -5 -319 -3 -3
-6 140 -6 318 0 178 2 321 5 318 3 -3 5 -146 6 -317z m157 268 c2 45 4 52 16
42 11 -9 15 -9 19 1 3 7 6 -150 6 -349 l1 -363 -32 0 -33 0 4 362 c3 200 7
338 11 308 l7 -55 1 54z m-108 -200 l-11 -24 6 25 c2 14 6 59 7 100 l2 75 3
-76 c2 -41 -1 -86 -7 -100z m-242 -136 l2 -253 -32 0 -33 0 3 256 3 255 27 -3
27 -3 3 -252z m1089 205 c-3 -8 -6 -5 -6 6 -1 11 2 17 5 13 3 -3 4 -12 1 -19z
m5743 -33 l0 -45 -40 0 -40 0 0 45 0 45 40 0 40 0 0 -45z m-92 -107 c-3 -42
-4 -43 -38 -43 -34 0 -35 1 -38 43 l-3 42 41 0 41 0 -3 -42z m-6501 -60 c-2
-13 -4 -3 -4 22 0 25 2 35 4 23 2 -13 2 -33 0 -45z m6413 -23 c0 -45 0 -45
-35 -45 -34 0 -35 1 -31 33 3 17 5 38 5 45 1 7 14 12 31 12 29 0 30 -2 30 -45z
m-90 -94 c0 -25 -5 -39 -12 -38 -7 0 -30 -1 -50 -1 -35 -2 -37 -4 -40 -39 -3
-36 -5 -38 -40 -41 -37 -3 -38 -3 -38 32 0 36 3 39 50 40 23 1 25 4 22 44 l-2
42 55 0 55 0 0 -39z m-4636 -2 c3 -17 6 -74 6 -126 l0 -94 -42 3 c-31 2 -43 7
-41 18 1 8 4 63 8 123 l7 107 28 0 c23 0 29 -5 34 -31z m749 -36 c9 -93 8
-165 -2 -181 -5 -8 -21 -12 -37 -10 l-29 3 -3 114 c-1 63 0 121 2 128 3 7 18
13 34 13 29 0 29 -1 35 -67z m-3155 40 c-1 -10 0 -27 1 -38 3 -17 4 -17 11 5
6 19 8 9 9 -38 1 -60 0 -63 -21 -60 -21 3 -23 9 -26 76 -2 59 0 72 12 72 9 0
15 -8 14 -17z m-1328 -82 c0 -39 1 -40 38 -43 35 -3 37 -5 40 -40 l3 -38 -40
0 -41 0 0 40 c0 36 -3 40 -24 40 -14 0 -28 5 -31 10 -4 6 -11 8 -16 5 -5 -4
-9 10 -9 29 0 35 1 36 40 36 40 0 40 0 40 -39z m6700 -30 c0 -27 3 -63 6 -80
6 -31 6 -31 -35 -31 l-41 0 0 73 c0 41 3 77 7 80 3 4 19 7 35 7 27 0 28 -2 28
-49z m-490 -36 l0 -75 -34 0 -35 0 2 68 c2 71 8 82 45 82 21 0 22 -4 22 -75z
m830 0 c0 -60 3 -75 15 -75 10 0 15 -11 15 -35 0 -34 -1 -35 -40 -35 -39 0
-40 1 -40 34 0 19 -4 38 -10 41 -11 7 -13 87 -4 123 5 16 14 22 35 22 l29 0 0
-75z m1138 -17 c-3 -29 -7 -33 -35 -36 -32 -3 -33 -2 -33 32 0 35 1 36 36 36
34 0 35 -1 32 -32z m-1600 -20 c-3 -29 -7 -33 -35 -36 -30 -3 -33 -1 -33 26 0
16 3 32 7 35 3 4 19 7 35 7 27 0 29 -3 26 -32z m-4975 -2 c9 -7 17 -19 18 -27
0 -8 4 -5 9 6 6 15 9 8 9 -27 l1 -48 43 -2 42 -1 -41 -4 -41 -4 -7 -84 c-9
-110 -6 -327 4 -340 5 -6 10 -26 12 -45 3 -33 5 -35 37 -32 33 2 33 2 29 -37
-2 -26 0 -37 8 -34 19 7 24 -11 17 -65 -4 -40 -8 -48 -18 -39 -7 7 -11 15 -8
20 2 4 -1 7 -6 7 -6 0 -11 16 -11 35 0 28 -4 35 -19 35 -15 0 -21 8 -23 33 -3
30 -6 32 -44 35 l-41 3 -7 76 c-12 150 -3 554 13 553 3 0 14 -7 24 -14z m6485
-63 c-3 -35 -6 -38 -35 -41 -32 -3 -33 -2 -33 37 0 40 1 41 36 41 35 0 35 -1
32 -37z m-6381 21 c-3 -3 -12 -4 -19 -1 -8 3 -5 6 6 6 11 1 17 -2 13 -5z
m5165 -74 l3 -80 -31 0 c-37 0 -44 15 -44 97 0 49 2 52 28 56 15 2 30 5 34 6
3 0 8 -35 10 -79z m-2080 25 c3 -14 1 -25 -3 -25 -5 0 -9 11 -9 25 0 14 2 25
4 25 2 0 6 -11 8 -25z m1285 -17 c-3 -7 -5 -2 -5 12 0 14 2 19 5 13 2 -7 2
-19 0 -25z m1100 0 c-3 -7 -5 -2 -5 12 0 14 2 19 5 13 2 -7 2 -19 0 -25z m798
-33 l0 -30 -72 -3 -73 -3 0 36 0 36 73 -3 72 -3 0 -30z m-6727 -136 l4 -156
-24 1 c-46 3 -48 9 -48 160 0 78 3 146 7 150 4 4 18 6 32 4 l25 -3 4 -156z
m805 134 c6 -32 -6 -43 -45 -43 -25 0 -28 3 -28 35 0 33 2 35 34 35 29 0 34
-4 39 -27z m1469 -10 c3 -34 6 -38 35 -41 24 -2 33 -9 38 -30 5 -20 8 -23 16
-11 6 10 9 7 9 -12 0 -23 5 -28 37 -34 20 -3 32 -10 27 -13 -6 -4 -10 -17 -10
-29 0 -21 5 -23 58 -23 57 0 58 -1 58 -27 0 -35 9 -48 36 -57 22 -7 34 -45 34
-108 l0 -27 234 0 c173 0 235 3 238 12 3 7 3 28 2 47 -5 58 3 81 29 78 12 -2
28 -7 35 -11 9 -6 12 4 12 42 0 50 1 51 30 51 17 0 30 -5 30 -11 0 -5 4 -8 9
-4 5 3 8 23 6 45 -4 39 -3 40 26 40 30 0 31 1 27 38 -2 22 1 39 7 39 70 -1 75
2 75 38 0 33 2 35 35 35 33 0 35 -2 35 -35 0 -33 2 -35 35 -35 l35 0 0 -75 0
-75 35 0 c34 0 35 -1 36 -42 0 -24 3 -38 5 -32 2 6 18 8 34 6 27 -4 30 -8 30
-43 l0 -39 45 0 c45 0 45 0 45 -34 0 -33 2 -35 38 -38 36 -3 37 -4 34 -40 -4
-37 -3 -38 32 -38 34 0 36 -2 36 -34 0 -33 2 -35 38 -38 24 -2 37 -8 38 -18 1
-8 2 -47 2 -85 l2 -71 35 4 35 4 0 -58 0 -59 74 3 75 4 -6 -59 c-3 -32 -11
-61 -17 -65 -7 -5 -4 -8 7 -8 18 0 17 -2 -2 -34 -12 -18 -21 -43 -21 -55 0
-12 -6 -21 -15 -21 -12 0 -15 19 -15 110 l0 110 -42 -1 -43 -2 40 -7 c38 -7
24 -14 -20 -11 -19 1 -19 1 -2 -10 10 -6 27 -9 38 -6 18 5 19 -1 19 -109 0
-69 4 -114 10 -114 6 0 10 -5 10 -11 0 -5 -4 -7 -10 -4 -5 3 -10 -1 -10 -9 0
-9 6 -13 14 -10 8 3 17 0 21 -5 3 -6 10 -9 14 -6 5 2 6 -7 3 -20 -2 -15 0 -25
7 -25 7 0 11 -26 11 -74 l0 -75 38 -3 c35 -3 37 -5 40 -40 3 -36 5 -38 38 -38
l34 0 0 -55 c0 -40 4 -55 14 -55 10 0 13 -12 11 -44 -3 -49 -12 -69 -25 -61
-5 3 -10 -20 -12 -52 -3 -57 -3 -58 -35 -61 -31 -3 -33 -6 -33 -42 0 -34 4
-41 25 -46 14 -3 31 -4 39 -1 7 3 13 0 13 -6 -1 -40 4 -47 33 -47 26 0 30 4
30 28 0 42 14 58 41 46 17 -8 23 -19 23 -45 1 -33 2 -34 39 -31 l37 4 -1 -69
c-1 -37 -4 -56 -6 -40 -2 15 -9 25 -14 22 -5 -4 -9 -1 -9 5 0 6 -4 8 -10 5 -5
-3 -10 -1 -10 6 0 9 -3 9 -14 0 -8 -7 -20 -11 -28 -10 -32 4 -38 -2 -38 -41 0
-39 1 -40 35 -40 l35 0 0 -50 0 -50 35 0 c26 0 35 -4 36 -17 0 -15 2 -15 9 2
7 18 8 18 14 3 15 -43 15 -49 3 -46 -6 1 -23 -2 -36 -6 -17 -6 -20 -10 -11
-16 11 -7 14 -88 13 -404 0 -218 -2 -398 -4 -400 -2 -2 -17 -6 -32 -8 l-29 -3
1 247 2 247 -33 -10 c-18 -5 -34 -9 -35 -9 -2 0 -3 18 -3 40 0 26 -5 43 -14
46 -8 3 -17 21 -21 41 l-6 35 -50 -6 -50 -7 2 98 2 98 -29 10 c-16 5 -30 10
-32 11 -8 4 -15 59 -18 139 l-3 90 -31 3 -30 3 0 -115 c0 -135 -3 -145 -36
-138 -19 3 -24 0 -24 -15 0 -24 19 -43 42 -43 16 0 18 -10 20 -72 l1 -73 7 55
c4 30 7 49 8 42 1 -6 5 -11 10 -11 28 5 32 -4 32 -71 0 -48 -4 -71 -12 -72 -7
-1 11 -4 40 -7 l54 -6 1 -115 2 -115 27 -3 c26 -3 26 -4 10 -23 -16 -18 -17
-18 -23 -2 -4 10 -9 -78 -11 -195 l-3 -212 28 0 c25 0 27 -3 27 -39 0 -31 4
-41 20 -46 11 -3 20 -9 20 -13 1 -4 2 -53 3 -110 2 -85 -1 -102 -13 -103 -10
0 -8 -3 5 -9 19 -8 19 -9 1 -9 -13 -1 -17 -6 -13 -21 3 -11 1 -20 -4 -20 -5 0
-9 14 -9 30 0 27 -3 30 -30 30 -16 0 -29 3 -29 8 1 4 1 37 0 75 l-1 67 -34 0
-34 0 -7 59 c-4 32 -6 74 -5 92 3 54 0 75 -8 63 -4 -6 -17 -13 -29 -16 -22 -6
-23 -4 -23 61 l0 67 -40 -4 -40 -4 -2 58 c-1 33 -1 69 -1 81 0 20 -3 22 -43
16 l-44 -6 0 120 c0 66 2 122 5 124 2 3 20 3 40 1 l35 -4 0 -79 0 -79 35 0 35
0 0 -80 0 -80 43 3 42 3 1 122 1 122 -43 0 -44 0 0 65 0 65 -35 0 -35 0 0 125
0 125 -30 0 -30 0 -2 -122 c0 -68 -1 -129 -1 -135 1 -7 -5 -13 -13 -13 -8 0
-11 6 -8 15 4 10 0 15 -14 15 -15 0 -22 -8 -25 -27 -2 -16 -5 13 -7 62 -2 63
-5 78 -9 50 -5 -37 -6 -36 -12 25 -6 58 -6 56 -4 -25 2 -90 15 -444 18 -478 1
-16 3 -17 13 -3 6 9 24 16 39 16 l28 0 -5 -235 -6 -235 33 0 c28 0 33 4 39 31
3 17 6 83 6 145 l0 114 30 0 30 0 0 -155 0 -155 -27 0 c-27 -1 -27 -1 -9 -15
17 -13 18 -15 3 -15 -9 0 -17 -4 -17 -10 0 -11 32 -1 42 14 4 6 8 1 8 -11 0
-13 -3 -22 -7 -22 -5 1 -23 1 -40 0 l-33 -1 -2 -202 c-3 -217 0 -205 -48 -199
-6 1 -11 93 -12 239 l-3 237 -37 3 c-37 3 -38 3 -38 -32 0 -34 -2 -36 -35 -36
l-35 0 0 -85 0 -85 35 0 c34 0 35 -1 34 -37 0 -21 -4 -47 -9 -58 l-9 -20 -1
20 c-1 15 -3 16 -7 5 -11 -29 -27 -29 -40 1 -10 25 -16 28 -45 25 l-33 -3 -3
-177 -2 -176 -35 0 -35 0 0 410 0 410 -35 0 -35 0 -1 -327 c0 -181 -1 -452 -1
-604 l1 -277 -35 -4 -34 -4 0 153 0 153 -40 0 -40 0 0 80 0 80 -35 0 -35 0 0
94 0 94 -35 4 -35 4 -2 -71 c-1 -71 -1 -86 1 -163 1 -41 2 -42 27 -36 17 4 29
2 34 -6 4 -7 8 -62 9 -122 1 -88 -2 -110 -14 -114 -8 -4 -15 -10 -15 -16 0 -5
5 -6 10 -3 6 3 10 -1 10 -10 0 -9 -4 -13 -10 -10 -6 4 -11 -13 -12 -42 l-2
-48 -3 48 c-3 27 -9 47 -16 47 -7 0 -6 4 3 10 12 8 12 10 -3 16 -14 5 -17 19
-17 80 l0 74 -40 0 -40 0 0 -144 c0 -153 -1 -156 -51 -156 -17 0 -19 -8 -19
-80 l0 -80 -29 0 c-20 0 -31 6 -34 18 -3 9 -5 -22 -6 -71 -1 -87 -1 -88 -28
-93 l-28 -5 3 -125 4 -124 -39 0 -38 0 3 122 c3 148 5 152 37 144 23 -6 25 -4
25 29 0 19 -4 35 -10 35 -5 0 -8 10 -6 22 3 13 5 44 5 69 1 45 2 47 35 53 31
6 34 10 38 46 2 28 0 40 -9 40 -9 0 -13 17 -13 53 0 51 -1 52 -30 53 l-30 2 0
-98 0 -98 -35 5 c-37 5 -35 8 -39 -57 -1 -9 -13 -16 -28 -18 l-27 -3 -3 -122
-3 -122 -32 -3 c-26 -3 -32 -8 -35 -30 -2 -22 -9 -28 -35 -30 -32 -3 -33 -2
-33 33 0 35 1 36 33 33 l32 -3 3 125 3 126 34 -4 c34 -4 35 -3 35 32 0 35 -1
36 -40 36 -39 0 -40 -1 -40 -35 0 -33 -2 -35 -35 -35 l-35 0 0 -80 0 -80 -35
0 c-35 0 -35 0 -35 45 0 45 0 45 -35 45 l-35 0 0 121 c0 105 -2 120 -15 115
-14 -5 -16 13 -13 149 l3 155 -32 0 -33 0 0 -115 0 -115 -35 0 -35 0 1 198 c0
108 -2 245 -6 304 l-8 108 -33 0 -34 0 0 -105 0 -105 -30 0 c-17 0 -30 5 -31
13 0 6 0 47 0 90 l-1 77 -42 0 c-41 0 -43 1 -40 28 3 25 3 26 -4 3 -8 -25 -32
-41 -32 -21 0 6 -4 9 -10 5 -5 -3 -11 26 -13 72 -1 43 -4 -2 -5 -99 -2 -177
-2 -178 -24 -179 -17 -1 -19 -2 -5 -6 15 -4 17 -20 17 -159 0 -145 -1 -154
-19 -154 -11 0 -26 -3 -35 -6 -14 -5 -16 6 -16 84 0 49 -3 110 -6 136 -7 46
-7 46 -45 46 l-39 0 0 -160 0 -160 35 0 c33 0 35 -2 35 -34 0 -34 -13 -46 -50
-46 -14 0 -20 9 -22 38 -3 32 -7 37 -30 40 -28 3 -28 4 -28 80 0 42 -3 128 -7
190 l-6 112 -28 0 -28 0 -3 138 -3 137 -32 3 -32 3 2 117 2 117 -35 0 -35 0
-3 -122 -3 -123 36 0 35 0 0 -215 0 -215 30 0 c32 0 38 -16 21 -48 -7 -13 -23
-17 -63 -17 -50 0 -53 2 -54 25 0 14 -1 125 -2 248 l-2 222 -30 0 c-29 0 -30
2 -30 45 0 45 0 45 -35 45 -28 0 -38 -5 -45 -22 -8 -22 -9 -22 -9 4 -1 17 4
27 12 25 7 -1 12 8 12 23 0 20 7 26 30 30 30 5 30 6 35 80 l5 75 53 3 c48 4
52 2 52 -18 0 -12 5 -18 10 -15 16 10 12 55 -4 49 -11 -4 -13 0 -9 17 4 14 2
20 -5 15 -6 -4 -12 3 -15 16 -2 13 -3 8 -1 -9 1 -18 -1 -35 -6 -38 -5 -3 -8
88 -8 202 0 215 2 227 17 108 7 -62 9 -65 10 -25 2 35 4 41 11 25 6 -14 9 -16
11 -5 1 8 5 -5 9 -30 5 -29 7 11 7 109 -1 153 -1 154 23 163 16 6 26 5 32 -4
4 -7 8 58 8 145 l0 157 -35 0 -35 0 0 -130 0 -130 -35 0 -35 0 0 -90 0 -90
-30 0 -30 0 0 -84 c0 -46 -3 -104 -6 -130 -6 -43 -9 -46 -35 -46 l-29 0 0 178
c0 102 4 171 9 164 5 -8 17 -12 27 -10 17 3 19 14 22 88 2 47 0 118 -3 158 -6
68 -8 72 -31 72 -23 0 -24 3 -24 60 0 57 -1 60 -25 60 -23 0 -24 -3 -19 -37 3
-21 10 -39 15 -41 5 -2 9 -47 9 -99 l0 -95 -43 6 -44 7 4 -133 c2 -73 5 -148
6 -165 3 -31 1 -33 -30 -33 l-33 0 0 -69 c0 -69 0 -70 -27 -73 -27 -3 -28 -5
-25 -51 l4 -47 -35 0 -34 0 -7 -190 c-4 -104 -5 -194 -1 -200 4 -6 -7 -10 -27
-10 l-33 0 0 113 c0 61 1 165 3 230 l2 117 30 0 c29 0 30 2 31 48 1 30 3 37 6
19 3 -16 13 -37 23 -47 17 -17 18 -17 24 12 3 17 6 70 6 119 0 83 1 89 20 89
12 0 25 -10 32 -25 12 -27 23 -31 34 -13 4 7 3 8 -4 4 -8 -5 -12 0 -12 13 0
10 -4 21 -9 23 -13 4 -23 436 -10 444 5 3 15 2 22 -4 7 -5 23 -6 37 -2 23 6
25 10 22 61 -3 58 8 152 15 132 3 -7 20 -13 39 -13 l34 0 0 75 c0 53 -4 76
-14 82 -17 10 -19 21 -15 103 l2 65 7 -65 c5 -49 7 -25 9 100 2 91 4 174 5
185 1 15 10 21 37 25 34 5 36 7 35 38 -1 23 5 37 17 43 29 16 50 -4 51 -50 1
-41 1 -41 -36 -41 l-38 0 0 -121 0 -122 33 5 c17 3 37 4 42 2 6 -3 9 -46 7
-110 -3 -94 -1 -106 12 -101 12 5 16 0 17 -16 0 -12 3 -16 6 -9 2 6 9 10 14 6
5 -3 9 29 9 75 0 84 2 88 48 82 9 -1 12 27 12 114 l0 115 -33 0 c-26 0 -33 -4
-34 -20 -1 -11 1 -19 5 -16 4 2 5 -19 3 -47 -3 -53 -12 -67 -44 -67 -16 0 -18
11 -16 115 1 99 3 115 18 116 14 0 14 1 1 7 -9 4 -15 14 -14 22 0 8 2 23 2 34
2 15 5 16 16 7 11 -9 17 -9 27 1 8 7 23 13 34 13 27 0 34 51 8 58 -10 3 5 5
33 6 32 1 51 5 52 14 6 57 19 90 35 93 9 1 17 -2 17 -7 0 -5 6 -9 14 -9 19 0
28 30 25 83 -3 46 18 120 31 112 4 -3 19 -1 31 3 20 8 23 15 20 55 -1 29 2 47
8 47 6 0 11 21 11 50 0 48 1 50 29 50 24 0 29 -5 35 -31 3 -17 6 -56 6 -85 0
-51 2 -54 24 -54 14 0 28 5 31 10 4 7 -3 9 -22 5 -15 -3 -22 -2 -15 1 7 3 13
28 14 62 l2 57 3 -47 c2 -27 7 -48 11 -48 4 0 5 22 4 50 -3 32 0 50 7 50 7 0
11 36 11 105 0 102 1 105 23 106 47 1 106 19 64 19 -11 0 -17 8 -17 25 0 23 4
25 40 25 39 0 40 1 40 35 l0 35 53 -1 c28 -1 44 -3 35 -6 -15 -4 -18 -16 -18
-69 0 -62 1 -64 25 -64 14 0 25 -4 25 -10 0 -6 26 -10 58 -10 32 0 62 -4 68
-9 5 -5 25 -14 44 -20 l35 -11 -36 3 c-27 2 -35 -1 -32 -10 4 -9 26 -13 69
-13 36 0 64 -4 64 -10 0 -16 220 -13 221 3 0 10 2 10 6 0 2 -7 14 -13 25 -13
17 0 20 5 16 40 l-4 40 69 0 c47 0 73 5 83 15 9 8 29 15 45 15 26 0 29 3 29
30 0 19 5 30 14 30 8 0 17 7 20 16 4 10 2 13 -7 8 -6 -4 -4 2 6 13 14 16 15
22 5 26 -7 3 10 5 37 6 37 0 45 -3 30 -9 l-20 -9 20 0 c17 -1 17 -3 5 -11 -13
-9 -13 -10 0 -10 11 -1 10 -4 -4 -15 -19 -14 -19 -15 7 -15 l27 0 0 -80 c0
-65 3 -80 15 -80 12 0 13 4 5 19 -18 35 -12 61 14 61 23 0 24 -4 31 -91 l7
-91 39 4 39 4 0 -83 0 -83 34 0 c37 0 46 -12 46 -61 0 -22 5 -29 20 -29 11 0
20 6 20 13 0 6 5 4 11 -6 6 -11 9 -29 7 -42 -6 -28 12 -35 85 -35 l47 0 0 -39
c0 -43 8 -49 52 -43 23 4 28 9 28 32 0 19 -6 30 -17 33 -10 3 8 5 40 6 l57 1
0 -35 c0 -33 2 -35 35 -35 33 0 35 2 35 34 0 32 -3 35 -32 38 -31 3 -33 6 -36
46 -3 42 -3 42 30 42 32 0 34 2 36 35 2 33 1 35 -28 35 -26 0 -30 4 -31 28 -1
16 -3 20 -6 10 -2 -10 -9 -18 -15 -18 -5 0 -8 6 -6 13 4 11 -24 47 -37 47 -3
0 -9 0 -13 0 -4 0 -6 16 -4 35 4 34 3 35 -32 35 -35 0 -36 1 -36 40 0 39 -1
40 -35 40 -32 0 -35 2 -33 28 1 15 6 33 11 40 7 8 5 12 -7 12 -12 0 -16 10
-16 38 0 38 0 38 -36 34 l-36 -4 4 41 4 41 -38 0 -38 0 0 75 c0 73 -1 75 -25
75 -22 0 -25 -4 -25 -35 0 -19 -4 -35 -10 -35 -5 0 -10 22 -10 49 0 27 -3 63
-6 80 -6 27 -10 31 -40 31 -31 0 -34 3 -34 30 0 17 -5 30 -11 30 -5 0 -8 -4
-5 -8 3 -5 -8 -16 -23 -25 l-28 -17 -7 47 c-3 25 -6 65 -6 89 0 42 -1 44 -29
44 -17 0 -32 -4 -35 -9 -3 -4 7 -6 22 -3 26 4 26 4 7 -12 -19 -15 -19 -17 7
-20 6 0 13 -7 16 -13 2 -9 -8 -13 -32 -13 -29 0 -36 -4 -36 -20 0 -15 -7 -20
-25 -20 -20 0 -25 5 -25 25 l0 25 -132 2 c-79 1 -104 3 -62 5 67 4 72 5 77 28
l4 25 -218 0 -219 0 0 -30 c0 -28 -3 -30 -35 -30 -32 0 -35 2 -37 33 l-1 32
-4 -32 c-4 -31 -7 -33 -44 -33 -51 0 -54 1 -54 27 -1 39 -15 38 -15 0 0 -36
-1 -37 -35 -37 -21 0 -35 5 -36 13 0 10 -2 10 -6 0 -2 -7 -20 -13 -38 -13 -31
0 -34 3 -37 33 -3 29 -6 32 -40 35 l-38 3 0 -65 0 -66 -35 0 c-31 0 -36 -3
-41 -30 -6 -26 -11 -30 -40 -30 -32 0 -34 -2 -35 -37 -3 -105 -17 -133 -63
-133 -22 0 -26 -4 -26 -30 0 -23 -6 -33 -23 -39 -20 -8 -23 -15 -19 -45 4 -35
3 -36 -29 -37 -19 -1 -37 -1 -41 0 -5 0 -8 -10 -8 -23 0 -42 -11 -56 -41 -56
-26 0 -29 -3 -28 -32 l1 -33 11 26 c11 24 13 24 28 10 21 -21 13 -41 -17 -41
-21 0 -24 -4 -24 -40 0 -38 -2 -40 -30 -40 -28 0 -30 3 -30 35 0 27 -4 35 -17
35 -16 0 -18 -9 -15 -75 l4 -75 -37 0 c-31 0 -36 -3 -30 -17 13 -32 19 -153 7
-153 -6 0 -14 5 -17 10 -3 6 -14 9 -23 9 -16 -1 -16 -2 0 -6 18 -4 21 -43 3
-43 -5 0 -3 -5 5 -10 13 -9 13 -10 0 -10 -13 0 -13 -1 0 -10 13 -8 12 -10 -2
-10 -10 0 -19 6 -20 13 0 6 -4 -8 -7 -33 -6 -43 -7 -45 -41 -45 -33 0 -35 -2
-38 -37 -3 -30 -7 -38 -23 -38 -10 0 -19 -6 -20 -12 0 -10 -2 -10 -6 0 -2 6
-9 12 -15 12 -5 0 -8 -30 -7 -72 l2 -73 -41 -3 c-40 -3 -42 -5 -40 -33 1 -18
8 -30 18 -31 8 0 -5 -4 -30 -7 -25 -4 -48 -5 -52 -3 -5 2 -8 21 -8 43 0 38 1
39 35 39 l35 0 0 75 0 75 34 0 33 0 2 69 c2 65 0 70 -21 73 -13 2 -28 -4 -35
-12 -15 -18 -17 50 -6 228 l6 112 31 -1 c24 -1 26 -3 9 -6 -25 -5 -26 -8 -12
-38 9 -18 9 -18 5 3 -4 19 -2 21 10 11 7 -6 12 -15 9 -19 -3 -5 -1 -11 5 -15
9 -5 16 76 11 125 -2 13 -1 13 8 0 11 -16 55 -24 45 -9 -3 5 0 9 7 9 16 0 6
90 -12 101 -14 8 24 21 70 23 l26 1 3 141 3 142 28 5 c39 8 35 40 -5 48 l-29
7 33 1 32 1 0 60 0 60 31 0 c28 0 31 3 26 25 -5 28 22 55 55 55 14 0 18 8 18
35 0 33 2 35 35 35 33 0 35 2 35 34 0 36 12 46 56 46 21 0 24 5 24 35 0 38 4
41 63 48 38 5 64 17 36 17 -8 0 2 8 21 18 19 9 36 24 37 32 15 118 12 111 45
106 24 -4 31 -1 35 15 3 10 8 19 12 19 4 0 5 15 3 34 -4 33 1 38 40 45 4 0 8
-16 10 -36z m3118 27 c0 -5 -11 -10 -25 -10 -14 0 -25 5 -25 10 0 6 11 10 25
10 14 0 25 -4 25 -10z m18 -57 c12 -2 22 3 23 10 0 6 4 3 8 -8 6 -16 16 -19
49 -16 42 3 42 2 42 -32 0 -33 -2 -36 -40 -42 l-40 -7 0 -139 c0 -86 -4 -139
-10 -139 -5 0 -10 -7 -10 -15 0 -8 5 -15 12 -15 20 0 -5 -17 -35 -24 l-28 -7
7 114 c8 132 -1 247 -20 247 -12 0 -11 56 1 90 5 13 6 13 12 0 3 -8 16 -16 29
-17z m-5161 -124 c-3 -66 -8 -123 -11 -126 -3 -3 -16 -3 -30 1 l-26 6 2 120 3
120 34 0 34 0 -6 -121z m473 -94 l0 -215 25 0 26 0 -3 -107 -3 -108 -33 -3
-33 -3 3 115 3 116 -27 0 -28 0 0 210 0 210 35 0 35 0 0 -215z m2877 168 c-3
-10 -5 -2 -5 17 0 19 2 27 5 18 2 -10 2 -26 0 -35z m2193 32 c0 -9 9 -26 21
-38 l20 -22 -28 -3 c-28 -3 -28 -4 -23 -55 l5 -52 36 3 36 3 6 -53 c4 -29 7
-68 7 -85 0 -27 4 -33 21 -33 19 0 20 -4 15 -35 -7 -34 -6 -35 23 -35 29 0 30
2 33 48 l3 47 43 3 42 3 0 -55 0 -55 43 -3 c42 -3 42 -3 41 -40 l-1 -38 43 0
c35 0 44 -4 45 -17 4 -59 3 -58 47 -61 41 -3 42 -4 42 -38 0 -29 4 -34 23 -34
35 0 49 -15 45 -46 -3 -25 -7 -29 -33 -28 -16 0 -71 1 -122 2 l-92 2 -3 38 -3
37 -80 0 -80 0 -5 -95 c-5 -92 -6 -95 -29 -98 -14 -1 -27 2 -30 7 -3 5 -5 50
-3 100 l3 91 30 0 c27 0 29 3 29 39 l0 40 -42 -2 c-43 -2 -43 -2 -46 36 -3 37
-4 37 -46 37 -42 0 -44 -1 -50 -37 -3 -21 -6 -76 -6 -122 l0 -83 -30 4 c-29 4
-30 4 -30 -39 0 -44 0 -44 33 -41 30 3 32 6 35 46 3 39 5 42 33 42 27 0 29 -2
29 -40 0 -34 -3 -40 -20 -40 -20 0 -20 -5 -18 -142 l3 -143 28 -3 c27 -3 27
-2 27 51 0 30 3 81 6 113 6 53 9 59 30 60 13 1 35 5 49 8 23 6 25 4 25 -29 0
-29 -4 -36 -26 -41 -20 -5 -24 -11 -20 -28 3 -11 6 -45 6 -73 l0 -53 55 0 55
0 6 40 7 40 89 -2 89 -3 -3 -35 -3 -35 -92 -3 -93 -3 0 -29 0 -29 92 -3 c82
-3 93 -5 96 -22 6 -28 -15 -36 -105 -36 -82 0 -83 0 -83 -25 0 -25 -1 -25 -89
-25 l-90 0 -3 -37 c-3 -37 -4 -38 -45 -41 l-43 -3 0 40 c0 40 -1 41 -35 41
l-35 0 0 -82 0 -83 55 3 55 4 0 -122 c0 -120 0 -121 23 -118 20 3 22 9 25 86
l3 82 29 0 30 0 0 -239 0 -239 63 1 62 2 3 -37 c3 -36 5 -38 38 -38 32 0 34
-2 28 -26 -4 -14 -2 -29 3 -33 5 -3 6 -17 2 -31 -6 -21 -7 -22 -8 -4 -1 11 -6
25 -13 32 -7 7 -9 12 -5 12 4 0 2 6 -5 14 -7 8 -16 12 -21 9 -4 -2 0 -12 9
-21 16 -15 15 -17 -7 -23 -24 -7 -8 -13 21 -9 8 1 11 -2 7 -7 -5 -4 -21 -8
-36 -8 -29 0 -37 19 -18 43 6 8 5 12 -4 12 -9 0 -7 5 5 11 32 19 -2 29 -102
29 l-92 0 6 80 7 80 -67 0 c-40 0 -66 4 -66 11 0 5 -6 7 -12 3 -10 -6 -10 -4
0 7 6 7 12 21 12 31 0 14 11 18 63 20 l62 3 -1 39 c-2 40 -16 57 -49 55 -45
-3 -57 1 -52 16 4 8 1 17 -4 21 -6 3 -8 27 -6 55 4 41 2 49 -11 49 -10 0 -13
3 -7 8 6 4 12 21 13 39 3 27 1 31 -17 26 -12 -3 -35 -3 -53 1 l-33 6 3 160 3
160 -27 0 -27 0 5 -125 5 -125 -34 0 c-32 0 -33 -1 -33 -41 l0 -42 -42 6 c-39
5 -59 22 -64 54 -3 17 28 26 37 11 7 -11 11 -1 24 64 1 9 -2 19 -9 22 -6 2 4
5 22 5 31 1 32 2 32 45 0 51 -25 111 -33 79 -4 -15 -5 -14 -6 5 -1 20 9 27 32
23 4 0 7 66 7 147 l0 148 -27 2 c-15 1 -30 -4 -35 -10 -4 -7 -9 21 -10 65 -1
42 -2 87 -2 100 -1 18 5 23 33 25 43 4 51 -8 51 -78 0 -66 7 -79 46 -86 16 -2
35 -7 42 -9 9 -3 12 16 12 75 0 75 -1 80 -21 80 -19 0 -21 5 -17 41 l4 41 -62
-4 -62 -4 -6 96 c-4 52 -9 123 -11 158 -6 67 -7 66 53 62 l32 -2 -6 126 c-5
92 -4 126 4 128 7 0 34 2 60 3 55 1 76 11 68 32 -12 31 11 49 63 52 41 2 51
-1 51 -14z m-5723 -137 c-2 -29 -3 -8 -3 47 0 55 1 79 3 53 2 -26 2 -71 0
-100z m2332 120 c-1 -16 -3 -18 -6 -6 -2 9 -12 19 -21 21 -12 3 -10 5 6 6 17
1 22 -4 21 -21z m380 -10 c4 7 11 4 19 -9 12 -18 10 -20 -23 -17 -44 3 -54 14
-29 33 16 12 19 11 23 -2 2 -10 5 -12 10 -5z m941 -98 c0 -5 -7 -10 -16 -10
-8 0 -12 5 -9 10 3 6 10 10 16 10 5 0 9 -4 9 -10z m-4020 -29 c0 -5 15 -5 35
-1 34 8 35 7 35 -25 0 -31 -2 -33 -45 -37 -25 -3 -95 -3 -155 0 l-110 5 0 33
0 34 120 0 c66 0 120 -4 120 -9z m6380 -26 l0 -35 -60 0 -60 0 0 35 0 35 60 0
60 0 0 -35z m-1120 -55 l0 -80 -35 0 c-39 0 -39 -1 -29 99 7 59 8 61 35 61
l29 0 0 -80z m-5030 -30 c0 -32 4 -39 23 -42 21 -3 22 -8 25 -90 2 -55 -1 -88
-7 -88 -6 0 -8 -7 -5 -15 4 -9 0 -15 -7 -15 -11 0 -11 -3 1 -10 10 -6 11 -10
3 -10 -7 0 -13 -6 -13 -14 0 -17 -22 -26 -61 -26 -26 0 -29 -4 -29 -30 0 -23
5 -30 19 -30 37 0 51 -12 51 -41 0 -27 -3 -29 -40 -29 l-40 0 0 -89 c0 -48 -3
-116 -6 -150 -5 -43 -3 -61 5 -61 6 0 11 18 11 44 0 41 2 45 28 48 26 3 27 6
30 66 3 59 4 62 28 62 23 0 25 4 24 38 -4 91 -2 100 28 104 23 3 27 8 30 41 3
35 5 37 38 37 l34 0 0 93 c0 50 2 124 5 162 2 39 2 62 -1 52 -3 -9 -10 -15
-15 -12 -5 4 -9 -8 -9 -24 0 -29 -3 -31 -35 -31 -35 0 -35 0 -35 45 l0 45 80
0 80 0 0 -195 0 -195 -22 0 c-21 1 -21 2 -5 11 22 13 22 29 -2 29 -15 0 -20
-11 -27 -62 -8 -54 -12 -63 -33 -68 -22 -5 -24 -10 -25 -80 l-1 -75 -32 3 -33
4 -2 -116 c-1 -64 -2 -131 -2 -148 -1 -30 2 -33 32 -36 l33 -3 -6 45 -5 46 34
0 c33 0 33 -1 40 -52 9 -77 8 -110 -4 -103 -5 3 -10 1 -10 -4 0 -6 -9 -11 -19
-11 -16 0 -20 -7 -19 -41 0 -23 -4 -44 -8 -48 -5 -3 -10 -10 -11 -16 -1 -5 -5
-19 -8 -30 -6 -16 -5 -17 4 -5 9 13 11 13 11 -2 0 -27 -38 -23 -43 5 -2 12 -5
-22 -6 -75 l-1 -97 -32 -3 c-30 -3 -32 -5 -32 -43 -1 -39 0 -40 32 -40 l32 1
0 -153 0 -153 -30 0 c-28 0 -30 -2 -30 -40 l0 -40 -40 0 -40 0 0 -80 0 -80
-34 0 -35 0 -3 115 c-3 130 -7 125 90 125 l52 0 0 150 0 150 -29 0 c-25 0 -30
5 -34 28 -2 15 -5 -17 -6 -70 l-1 -98 -34 0 -33 0 -8 110 -7 110 -32 0 c-32 0
-33 2 -32 38 1 37 1 37 -41 40 -43 3 -43 3 -43 43 0 36 -2 39 -27 39 -16 0
-45 3 -65 6 -31 6 -38 11 -38 30 0 17 7 25 25 30 22 5 25 12 25 51 l0 44 -35
-7 -35 -6 0 52 0 51 33 -3 c29 -3 32 -6 35 -40 3 -37 4 -38 43 -38 39 0 40 0
37 36 -2 32 -5 35 -27 31 -40 -8 -51 2 -51 45 l0 40 40 -4 40 -3 -5 37 -5 38
40 0 c39 0 40 1 40 35 0 33 2 35 35 35 l35 0 0 80 0 80 -35 0 c-34 0 -35 -1
-35 -40 0 -40 0 -40 -39 -40 -36 0 -39 -2 -45 -35 -6 -30 -11 -35 -36 -35
l-29 0 -3 -72 -3 -73 -32 -3 -33 -3 0 80 c0 45 3 80 8 80 4 -1 19 -1 35 0 25
1 27 4 27 43 0 33 -3 39 -12 30 -7 -7 -29 -12 -50 -12 -35 0 -38 -2 -38 -29 0
-25 -5 -30 -34 -35 -19 -4 -47 -4 -61 0 -26 6 -26 6 -20 -30 l7 -36 -41 0 -41
0 0 -40 c0 -39 -1 -40 -35 -40 l-35 0 0 -125 0 -125 -35 0 -35 0 1 73 c0 39 4
95 7 122 6 45 10 50 35 53 24 3 27 7 27 43 0 36 2 39 29 39 29 0 41 14 41 50
0 14 10 21 35 26 32 6 35 9 35 41 0 35 1 36 35 30 34 -6 35 -5 35 29 l0 34 60
0 c48 0 62 -4 67 -17 6 -15 7 -15 14 3 4 10 8 36 8 57 1 37 1 37 42 37 39 0
40 1 37 33 -3 28 -7 32 -35 35 l-33 3 0 93 c0 51 3 127 6 169 7 76 7 77 35 77
l29 0 0 -140 0 -140 40 0 40 0 0 91 0 91 35 -4 35 -4 0 58 c0 58 0 58 30 58
17 0 30 5 31 13 0 6 4 3 9 -8 7 -17 9 -15 9 12 1 31 8 36 54 40 13 1 17 -6 17
-37z m6030 6 c0 -44 -16 -54 -41 -27 -11 12 -24 21 -29 21 -14 0 -12 27 3 33
6 3 24 6 40 6 24 1 27 -2 27 -33z m-913 -38 c-2 -13 -4 -3 -4 22 0 25 2 35 4
23 2 -13 2 -33 0 -45z m131 -90 c-1 -35 -4 -38 -30 -38 -26 0 -28 3 -28 40 0
39 1 40 30 38 28 -2 30 -5 28 -40z m92 -203 c0 -93 -3 -125 -12 -125 -7 0 -23
-3 -35 -6 -21 -6 -23 -3 -23 40 l0 46 -36 0 c-19 0 -33 4 -30 9 3 4 17 6 31 3
25 -4 25 -3 27 64 0 38 1 75 1 82 -1 7 13 12 38 12 l39 0 0 -125z m164 44 c4
-33 10 -67 13 -75 4 -10 -4 -14 -31 -14 l-36 0 0 75 c0 72 1 75 24 75 21 0 24
-5 30 -61z m-5057 -51 c-3 -7 -5 -2 -5 12 0 14 2 19 5 13 2 -7 2 -19 0 -25z
m-50 0 c-3 -8 -6 -5 -6 6 -1 11 2 17 5 13 3 -3 4 -12 1 -19z m3686 -5 c-7 -2
-19 -2 -25 0 -7 3 -2 5 12 5 14 0 19 -2 13 -5z m-3635 -115 l2 82 48 -1 c26 0
41 -3 35 -6 -9 -3 -13 -29 -13 -79 l0 -74 -30 0 -30 0 -2 -152 c0 -84 -1 -161
0 -170 1 -10 -3 -18 -8 -18 -6 0 -10 16 -10 35 l0 36 -62 -3 -63 -3 -3 38 -3
37 -55 0 -54 0 0 34 c0 35 12 46 53 46 20 0 22 6 25 62 4 72 6 78 33 78 16 0
19 -5 14 -20 -4 -11 -3 -60 0 -109 7 -83 9 -89 31 -94 22 -4 23 -2 26 72 l3
76 30 0 c32 0 47 27 26 48 -7 7 -10 44 -9 92 l2 80 6 -85 6 -85 2 83z m1129
47 c-1 -51 -27 -55 -27 -5 0 28 4 40 14 40 10 0 14 -11 13 -35z m1676 -2 l-33
-4 0 -85 0 -84 -182 1 c-104 1 -172 4 -158 9 14 4 52 6 85 4 l60 -3 -55 9
c-59 9 -96 5 -120 -15 -11 -9 -41 -10 -115 -5 -102 7 -112 13 -17 10 46 -1 52
1 52 19 0 12 5 21 10 21 6 0 10 -4 10 -10 0 -11 35 -8 46 3 10 10 26 9 20 -2
-3 -5 24 -8 59 -8 47 1 65 4 65 14 0 9 19 13 70 13 60 0 70 -3 71 -17 1 -16 2
-16 6 -1 2 9 12 19 21 21 9 3 -112 5 -269 6 -157 0 -288 3 -290 5 -2 2 -2 27
-1 55 l4 51 346 -2 c191 0 332 -3 315 -5z m-711 -81 c9 -1 19 5 21 15 4 14 5
13 6 -4 0 -13 -2 -24 -6 -24 -52 -9 -53 -8 -52 40 2 44 2 44 8 11 4 -22 12
-36 23 -38z m745 6 c-2 -13 -4 -3 -4 22 0 25 2 35 4 23 2 -13 2 -33 0 -45z
m-3280 10 c-3 -8 -6 -5 -6 6 -1 11 2 17 5 13 3 -3 4 -12 1 -19z m5426 -4 c5
-27 3 -29 -57 -39 -33 -6 -38 -4 -32 10 3 9 6 23 6 30 0 8 14 15 33 18 17 2
35 5 38 5 4 1 9 -10 12 -24z m-5423 -24 c0 -5 -4 -10 -10 -10 -5 0 -10 5 -10
10 0 6 5 10 10 10 6 0 10 -4 10 -10z m1554 -41 c-3 -5 5 -9 18 -10 13 0 17 -3
11 -6 -22 -8 -14 -25 8 -18 14 5 19 3 15 -3 -8 -13 -66 -13 -66 0 0 5 5 6 10
3 6 -3 10 -1 10 4 0 6 -4 11 -10 11 -5 0 -10 17 -9 38 0 33 1 35 10 14 5 -13
7 -28 3 -33z m1153 -11 c-3 -8 -6 -5 -6 6 -1 11 2 17 5 13 3 -3 4 -12 1 -19z
m2953 14 c0 -5 -9 -17 -20 -27 -18 -16 -20 -16 -20 -2 0 10 5 17 11 17 5 0 7
5 4 10 -3 6 1 10 9 10 9 0 16 -4 16 -8z m-2910 -12 c0 -5 -4 -10 -10 -10 -5 0
-10 5 -10 10 0 6 5 10 10 10 6 0 10 -4 10 -10z m1560 -41 c0 -28 -15 -23 -18
7 -1 14 2 23 8 19 6 -3 10 -15 10 -26z m2210 -53 l0 -85 -37 -3 c-36 -3 -38
-5 -43 -43 -5 -37 -7 -40 -35 -40 -28 0 -30 2 -30 40 0 39 1 40 38 43 l37 3 0
79 0 79 33 4 c17 2 33 5 35 5 1 1 2 -36 2 -82z m-1536 66 c3 -5 -1 -9 -9 -9
-8 0 -15 4 -15 9 0 4 4 8 9 8 6 0 12 -4 15 -8z m174 -55 l3 -38 -38 7 c-21 4
-39 7 -40 8 -1 1 0 18 3 38 6 33 8 35 38 29 27 -6 31 -11 34 -44z m1187 13 c0
-34 -1 -35 -42 -38 l-43 -3 0 41 0 41 43 -3 c41 -3 42 -4 42 -38z m-4783 -11
c-2 -13 -4 -37 -4 -52 -1 -47 -18 -8 -18 41 0 31 4 42 13 39 6 -2 11 -15 9
-28z m-1459 -16 c-7 -2 -21 -2 -30 0 -10 3 -4 5 12 5 17 0 24 -2 18 -5z m5127
-85 c0 -46 3 -100 6 -120 l7 -38 -37 0 -36 0 0 114 c0 101 2 115 18 119 41 11
42 9 42 -75z m870 42 c0 -34 -4 -41 -24 -46 -35 -8 -46 2 -46 41 0 34 9 43 48
44 19 1 22 -4 22 -39z m-6004 15 c-3 -8 -1 -15 4 -15 6 0 10 -7 10 -17 0 -13
-4 -11 -20 7 -24 28 -25 40 -4 40 10 0 14 -6 10 -15z m5244 7 c0 -5 -3 -12 -7
-16 -7 -7 -10 -15 -23 -81 -7 -36 -8 -32 -9 33 -1 66 1 72 19 72 11 0 20 -4
20 -8z m-4028 -64 c-5 -113 -9 -125 -10 -30 -1 50 1 92 6 92 4 0 6 -28 4 -62z
m40 28 c14 -10 15 -21 9 -62 -5 -29 -9 -38 -10 -21 0 15 -4 27 -9 27 -4 0 -6
-21 -5 -47 l2 -48 -9 50 c-11 65 -12 115 -2 115 4 0 15 -6 24 -14z m2875 -28
c-3 -8 -6 -5 -6 6 -1 11 2 17 5 13 3 -3 4 -12 1 -19z m-2240 -10 c-3 -8 -6 -5
-6 6 -1 11 2 17 5 13 3 -3 4 -12 1 -19z m2350 6 c-3 -3 -12 -4 -19 -1 -8 3 -5
6 6 6 11 1 17 -2 13 -5z m-27 -18 c0 -2 -7 -7 -16 -10 -8 -3 -12 -2 -9 4 6 10
25 14 25 6z m2056 -93 c1 -42 0 -43 -31 -43 -34 0 -45 13 -45 54 0 31 9 37 45
34 28 -3 30 -6 31 -45z m-4791 7 c3 -5 1 -10 -4 -10 -6 0 -11 5 -11 10 0 6 2
10 4 10 3 0 8 -4 11 -10z m-1140 -298 c-3 -8 -8 -12 -12 -8 -9 9 -35 -32 -28
-44 3 -6 2 -10 -3 -10 -14 0 -22 64 -22 192 l0 117 33 3 32 3 3 -119 c1 -66 0
-126 -3 -134z m4008 218 c-3 -11 -8 -20 -12 -20 -4 0 -7 9 -7 20 0 11 6 20 12
20 7 0 10 -8 7 -20z m1017 -5 c0 -14 -4 -25 -10 -25 -5 0 -10 11 -10 25 0 14
5 25 10 25 6 0 10 -11 10 -25z m-1728 -30 c3 -38 0 -45 -15 -45 -10 0 -15 -4
-12 -10 3 -5 15 -10 26 -10 29 0 25 -38 -6 -46 -37 -9 -55 15 -55 74 0 65 7
82 35 82 20 0 23 -6 27 -45z m-2377 3 c-3 -13 -2 -51 3 -86 5 -34 6 -65 2 -67
-4 -2 -10 26 -13 63 -4 37 -9 77 -13 90 -5 16 -2 22 10 22 12 0 15 -6 11 -22z
m4135 18 c0 -3 -4 -8 -10 -11 -5 -3 -10 -1 -10 4 0 6 5 11 10 11 6 0 10 -2 10
-4z m-1030 -26 c0 -5 -4 -10 -10 -10 -5 0 -10 5 -10 10 0 6 5 10 10 10 6 0 10
-4 10 -10z m30 -28 c0 -10 -22 -32 -32 -32 -4 0 -8 5 -8 11 0 5 5 7 10 4 6 -3
10 -2 10 4 0 5 -6 12 -12 14 -7 3 -3 6 10 6 12 1 22 -3 22 -7z m53 -9 c-7 -3
-9 -12 -6 -21 3 -9 3 -14 -1 -11 -4 4 -8 16 -11 27 -3 16 0 19 13 15 9 -4 11
-8 5 -10z m887 -18 c0 -34 0 -34 -52 -37 l-53 -3 -5 -120 c-4 -102 -7 -116
-17 -95 l-12 25 0 -27 c-1 -16 -5 -28 -11 -28 -16 0 -12 -37 6 -54 14 -15 14
-16 -5 -16 -20 0 -21 5 -21 134 0 73 -3 160 -6 194 l-7 61 92 0 91 0 0 -34z
m845 12 c38 -2 40 -4 43 -40 3 -35 5 -37 38 -37 33 0 34 -1 34 -40 0 -37 2
-40 29 -40 24 0 30 -5 35 -30 5 -27 9 -30 46 -30 l40 0 0 40 c0 39 1 40 35 40
34 0 35 -1 35 -40 l0 -40 80 0 80 0 0 -30 c0 -23 6 -33 23 -39 12 -5 28 -6 35
-4 8 4 12 -7 12 -36 l0 -41 80 0 c73 0 80 -2 80 -20 0 -16 7 -20 35 -20 32 0
35 -2 35 -30 l0 -30 75 0 75 0 0 -35 0 -35 85 0 85 0 0 -65 0 -65 34 0 c34 0
35 -1 38 -42 3 -40 5 -43 36 -46 30 -3 32 -6 32 -43 0 -38 1 -39 35 -39 33 0
35 -2 35 -35 0 -33 -2 -35 -35 -35 l-35 0 0 -80 0 -80 -40 0 -40 0 0 -94 c0
-99 -3 -106 -51 -106 -18 0 -19 9 -19 150 l0 150 -31 -7 -30 -6 7 38 c7 37 6
38 -17 32 -13 -4 -30 -7 -37 -7 -7 0 -12 -6 -11 -12 6 -47 -1 -58 -36 -58
l-34 0 -3 -57 c-3 -55 -4 -58 -30 -61 l-28 -3 0 175 0 176 -36 0 c-27 0 -37
-5 -41 -20 -3 -11 -9 -17 -14 -15 -7 5 -4 -36 6 -87 2 -10 1 -18 -1 -18 -8 0
-34 60 -34 79 0 14 -5 19 -15 14 -9 -3 -15 -2 -14 3 1 5 1 33 0 62 l-1 52 -35
0 c-35 0 -35 0 -35 46 l0 45 -37 -3 -38 -3 -3 -157 -3 -158 -28 0 c-25 0 -30
5 -36 37 -4 21 -12 42 -18 46 -9 6 -9 10 1 14 9 3 12 51 12 189 l0 184 -24 0
c-13 0 -27 -6 -29 -12 -3 -7 -6 8 -6 35 l-1 47 -37 0 c-21 1 -55 3 -75 6 l-38
6 0 -201 0 -201 -29 0 c-17 0 -32 4 -36 9 -3 6 -8 46 -12 90 -6 77 -7 80 -28
75 -32 -8 -44 14 -47 86 -3 59 -5 65 -25 68 -18 3 -23 10 -22 30 l1 27 8 -25
c5 -15 8 -18 9 -8 1 9 4 23 7 32 5 14 -3 16 -55 16 -60 0 -61 0 -60 28 0 24 1
25 10 7 7 -14 8 -8 4 25 -3 25 -1 52 4 60 8 11 3 17 -21 25 -22 7 -34 20 -42
45 -10 33 -14 35 -58 38 l-48 3 0 45 c0 46 0 46 -30 39 -37 -8 -60 8 -60 40 0
23 1 23 108 18 59 -2 125 -5 147 -6z m-1797 -39 c-6 -18 -28 -21 -28 -4 0 9 7
16 16 16 9 0 14 -5 12 -12z m127 -26 c-3 -3 -11 0 -18 7 -9 10 -8 11 6 5 10
-3 15 -9 12 -12z m-5080 0 c13 -5 21 -17 22 -34 2 -28 -16 -38 -69 -38 -26 0
-28 3 -28 40 0 37 2 40 28 39 15 -1 36 -4 47 -7z m5122 -54 c-2 -13 -4 -3 -4
22 0 25 2 35 4 23 2 -13 2 -33 0 -45z m-3294 -50 c6 -4 8 -10 4 -15 -5 -4 -13
-1 -18 7 -7 11 -8 5 -4 -19 5 -21 4 -31 -3 -27 -11 7 -22 -15 -22 -45 0 -10
-4 -19 -10 -19 -13 0 -3 62 16 98 7 15 15 47 16 72 l1 45 4 -45 c3 -24 10 -48
16 -52z m3234 60 c-3 -7 -5 -2 -5 12 0 14 2 19 5 13 2 -7 2 -19 0 -25z m-3280
-40 c-2 -13 -4 -3 -4 22 0 25 2 35 4 23 2 -13 2 -33 0 -45z m-2127 -23 l0 -46
93 3 92 3 0 35 c0 33 2 35 38 38 l37 3 0 -110 c0 -104 -1 -111 -20 -111 -13 0
-18 5 -14 15 4 8 11 12 18 8 6 -4 6 0 -2 9 -10 13 -10 17 0 21 7 3 -2 6 -19 6
-31 1 -33 -1 -33 -33 l0 -34 80 -4 80 -3 0 78 0 77 43 0 42 0 -3 -75 -4 -75
-34 0 c-33 0 -34 -1 -34 -40 l0 -40 -55 0 -55 0 0 -35 c0 -30 -3 -35 -24 -35
-16 0 -27 7 -31 20 -7 22 -20 26 -30 10 -4 -6 -3 -9 2 -8 8 3 13 -5 13 -22 0
-6 -30 -10 -70 -10 l-70 0 0 40 c0 38 -2 40 -30 40 -27 0 -30 -3 -30 -33 0
-19 3 -37 8 -41 8 -8 9 -13 11 -48 1 -19 3 -20 11 -8 7 10 9 -16 8 -85 l-3
-100 -40 -3 -40 -3 7 78 c3 43 10 97 16 121 l9 42 -34 0 c-31 0 -34 -2 -33
-27 4 -51 2 -53 -45 -53 -29 0 -45 -4 -45 -12 0 -10 -3 -9 -9 1 -5 7 -7 28 -6
45 4 44 -17 70 -49 62 -21 -5 -26 -3 -27 11 0 14 -2 13 -9 -4 -7 -17 -18 -23
-39 -23 -16 0 -31 -4 -33 -10 -7 -21 4 -130 14 -130 5 0 7 9 3 19 -3 11 -1 22
5 26 5 3 10 0 10 -7 0 -11 2 -10 9 0 11 18 21 -17 21 -76 0 -29 -5 -44 -15
-48 -12 -5 -15 -24 -15 -84 l0 -78 -45 -4 -45 -3 0 38 c0 31 -3 38 -17 35 -12
-3 -17 -12 -16 -26 2 -17 -2 -22 -22 -22 -21 0 -24 4 -22 32 2 32 1 33 -35 30
l-38 -4 0 41 c0 40 -1 41 -35 41 -34 0 -35 1 -35 41 l0 40 -52 -3 c-56 -3 -62
-10 -46 -55 7 -21 4 -23 -28 -23 l-35 0 2 -95 c1 -52 6 -95 11 -95 5 0 7 4 3
9 -3 5 -1 12 5 16 6 4 10 -5 10 -22 0 -19 3 -24 9 -15 7 11 9 11 13 0 4 -9 -3
-15 -19 -16 -13 -1 -22 2 -19 7 3 5 -12 5 -35 0 -23 -6 -43 -8 -45 -6 -3 3
-11 40 -13 60 -1 4 -14 7 -31 7 -28 0 -30 -3 -31 -37 0 -31 -2 -34 -9 -18 -5
11 -9 14 -9 7 -1 -7 -13 -11 -31 -10 -30 2 -30 3 -30 60 l0 58 35 0 c36 0 38
3 47 65 2 14 12 21 35 23 29 3 32 7 35 40 3 35 5 37 41 40 35 3 37 5 37 38 0
33 1 34 40 34 l40 0 0 41 c0 40 1 41 28 36 15 -3 39 -3 53 0 21 4 25 9 21 33
l-4 29 83 3 c73 3 84 5 83 21 -1 13 6 17 37 17 35 0 39 3 39 25 0 22 5 25 50
31 l50 7 0 38 0 39 71 0 71 0 -6 35 c-7 35 -7 35 29 35 35 0 35 0 35 45 0 45
0 45 35 45 35 0 35 0 35 -45z m5390 11 c0 -28 -4 -34 -25 -38 -23 -5 -25 -2
-25 33 0 35 3 39 25 39 22 0 25 -4 25 -34z m-4229 -31 c5 4 9 2 9 -3 0 -5 -11
-12 -25 -14 -19 -4 -25 -1 -25 13 0 21 24 32 28 12 2 -7 8 -11 13 -8z m1412
-5 c-3 -11 -7 -20 -9 -20 -2 0 -4 9 -4 20 0 11 4 20 9 20 5 0 7 -9 4 -20z
m-1238 -30 c-27 -12 -43 -12 -25 0 8 5 22 9 30 9 10 0 8 -3 -5 -9z m941 -24
c3 -12 4 -44 2 -71 -3 -47 -5 -50 -35 -56 -18 -3 -35 -4 -38 -1 -3 3 -5 40 -5
82 l0 76 35 -4 c26 -3 37 -10 41 -26z m4054 9 c0 -14 -4 -25 -10 -25 -5 0 -6
8 -3 17 5 12 2 15 -10 10 -17 -6 -23 4 -10 16 15 16 33 6 33 -18z m-4982 -98
c2 -82 0 -97 -13 -97 -16 0 -21 26 -6 32 6 2 6 17 1 38 l-8 35 -2 -35 c-2 -37
-18 -87 -19 -60 -1 13 -2 13 -11 0 -7 -10 -10 12 -10 73 0 68 3 87 14 87 8 0
17 7 20 16 3 9 12 14 19 12 8 -3 13 -35 15 -101z m-849 72 c6 10 10 9 14 -3 5
-13 -1 -16 -28 -16 -29 0 -35 4 -35 22 0 21 0 21 21 2 16 -14 22 -15 28 -5z
m868 -11 c-3 -7 -5 -2 -5 12 0 14 2 19 5 13 2 -7 2 -19 0 -25z m50 0 c-3 -7
-5 -2 -5 12 0 14 2 19 5 13 2 -7 2 -19 0 -25z m1130 -24 c-3 -3 -12 -4 -19 -1
-8 3 -5 6 6 6 11 1 17 -2 13 -5z m3943 -23 c0 -23 -5 -30 -25 -33 -19 -4 -25
-1 -25 13 0 9 -3 24 -6 33 -5 13 1 16 25 16 28 0 31 -3 31 -29z m-4176 -12
c-2 -4 4 -10 13 -12 14 -4 14 -5 -3 -6 -12 0 -24 5 -27 12 -3 8 1 14 9 14 7 0
11 -4 8 -8z m3006 -40 c0 -5 -4 -7 -10 -4 -5 3 -10 -3 -10 -14 0 -12 7 -21 15
-21 8 0 15 -4 15 -10 0 -5 -13 -10 -29 -10 -29 0 -29 1 -20 32 5 18 9 34 9 35
0 2 7 3 15 3 8 0 15 -5 15 -11z m852 -19 c-2 -16 -6 -30 -8 -30 -2 0 -4 14 -4
30 0 17 4 30 8 30 5 0 7 -13 4 -30z m-4022 0 c-10 -6 -11 -10 -2 -10 7 0 12
-13 12 -32 0 -25 -3 -29 -10 -18 -8 12 -10 10 -10 -8 0 -13 -4 -21 -9 -18 -5
4 -7 -3 -4 -14 6 -22 -14 -53 -28 -44 -5 3 -9 39 -9 80 l0 74 38 0 c27 0 33
-3 22 -10z m-1625 -86 c5 -15 2 -21 -9 -21 -13 0 -16 12 -15 56 1 52 2 53 9
21 5 -19 11 -44 15 -56z m4865 6 c0 -36 -2 -40 -25 -40 -28 0 -34 26 -12 49
10 11 10 13 0 7 -7 -4 -13 -3 -13 2 0 14 12 22 32 22 14 0 18 -8 18 -40z
m-4160 26 c0 -2 -11 -6 -25 -8 -13 -3 -22 -1 -19 3 5 9 44 13 44 5z m4036 -12
c-3 -9 -6 -27 -6 -40 0 -21 -5 -24 -35 -24 -34 0 -35 1 -35 40 l0 40 41 0 c33
0 40 -3 35 -16z m226 -96 c-4 -156 -9 -167 -11 -22 -1 99 3 134 13 134 1 0 0
-51 -2 -112z m-5010 71 l-9 -23 -13 23 c-11 21 -10 23 4 18 9 -4 16 -1 16 5 0
6 2 9 5 6 3 -3 2 -16 -3 -29z m-45 -11 c-3 -7 -5 -2 -5 12 0 14 2 19 5 13 2
-7 2 -19 0 -25z m5214 13 c-10 -7 -11 -16 -4 -37 6 -16 7 -52 3 -80 -5 -43 -4
-51 8 -46 12 4 13 -3 7 -36 -5 -34 -4 -41 12 -45 10 -2 4 -4 -13 -3 l-31 1 1
120 c1 111 9 156 24 140 4 -3 0 -10 -7 -14z m-5276 -53 c33 -30 43 -37 48 -32
3 3 8 1 12 -5 3 -6 -1 -11 -9 -11 -13 0 -16 -14 -16 -74 0 -74 0 -75 -27 -78
-19 -2 -29 -10 -34 -28 -6 -21 -14 -11 -10 13 2 11 -27 9 -34 -3 -3 -6 1 -13
9 -16 9 -3 16 -12 16 -20 0 -8 6 -14 13 -14 6 0 4 -5 -6 -11 -22 -13 -40 -2
-34 20 2 9 -2 22 -10 29 -11 11 -13 7 -9 -22 3 -20 1 -36 -4 -36 -5 0 -11 -8
-13 -17 -4 -15 -5 -14 -6 2 -1 18 -6 20 -35 17 -34 -4 -35 -3 -27 24 9 36 22
39 49 14 18 -17 22 -18 22 -5 0 8 -5 15 -12 15 -9 0 -9 3 0 12 7 7 12 27 12
45 0 33 1 34 35 27 35 -6 35 -6 35 29 0 20 5 39 10 42 6 4 8 26 6 51 -4 47 -2
51 19 32z m32 6 c-3 -3 -12 -4 -19 -1 -8 3 -5 6 6 6 11 1 17 -2 13 -5z m723
-109 l0 -115 -126 0 -125 0 3 38 3 37 93 0 92 0 0 78 0 77 30 0 30 0 0 -115z
m5200 35 l0 -80 40 0 c37 0 40 -2 40 -29 0 -33 -17 -41 -97 -41 l-53 0 0 115
0 115 35 0 35 0 0 -80z m-4006 64 c22 -8 20 -20 -2 -20 -10 0 -19 6 -19 13 0
15 0 15 21 7z m33 -16 c-3 -8 -6 -5 -6 6 -1 11 2 17 5 13 3 -3 4 -12 1 -19z
m4770 -150 c-2 -18 -4 -4 -4 32 0 36 2 50 4 33 2 -18 2 -48 0 -65z m-537 57
c0 -7 -7 -16 -16 -19 -20 -8 -179 -8 -171 0 3 3 32 6 64 5 31 0 60 3 63 7 9
13 45 30 53 25 4 -2 7 -10 7 -18z m487 -27 c-3 -7 -5 -2 -5 12 0 14 2 19 5 13
2 -7 2 -19 0 -25z m-4849 -30 c-3 -34 -1 -38 19 -38 13 0 23 5 23 10 0 6 8 10
18 10 10 0 23 5 29 11 16 16 33 2 33 -29 l1 -27 14 25 c14 25 14 24 15 -17 0
-28 -4 -43 -12 -43 -7 0 -2 -7 10 -16 17 -11 21 -24 20 -54 -1 -38 -2 -39 -16
-19 -12 18 -13 23 -1 30 12 7 11 9 -1 9 -12 0 -12 2 -2 9 10 6 9 10 -7 14 -12
3 -21 1 -21 -4 0 -5 -9 -9 -19 -9 -37 0 -51 -12 -51 -41 0 -26 3 -29 35 -29
l35 0 0 -65 0 -65 -34 0 c-38 0 -46 -12 -46 -66 0 -31 -3 -34 -28 -34 -26 0
-28 3 -24 30 2 18 0 30 -7 30 -7 0 -8 8 0 27 5 14 7 39 4 54 -7 31 4 43 25 27
12 -8 12 -9 -2 -4 -10 3 -18 1 -18 -4 0 -6 9 -10 20 -10 21 0 29 30 8 31 -7 0
-4 4 7 9 17 7 15 9 -12 9 l-33 1 0 100 c0 93 -1 100 -20 100 -13 0 -20 -7 -20
-20 0 -13 -7 -20 -20 -20 -11 0 -20 -4 -20 -9 0 -5 -9 -11 -20 -14 -15 -4 -22
1 -26 18 -8 32 2 45 35 45 25 0 30 5 35 34 7 34 17 41 59 42 16 0 18 -7 15
-38z m5299 -91 c-2 -23 -3 -1 -3 48 0 50 1 68 3 42 2 -26 2 -67 0 -90z m-5250
101 c-3 -8 -6 -5 -6 6 -1 11 2 17 5 13 3 -3 4 -12 1 -19z m-306 -7 c7 11 9 11
9 1 0 -7 5 -10 10 -7 6 3 10 1 10 -4 0 -13 -47 -15 -54 -2 -3 4 -2 11 2 15 3
4 8 2 11 -5 2 -8 6 -7 12 2z m5798 -13 c0 -22 -1 -22 -9 -3 -7 18 -8 18 -15
-8 -4 -15 -5 -47 -2 -70 5 -35 5 -38 -4 -17 -12 30 -9 102 6 112 18 13 25 9
24 -14z m-5837 -108 l-3 -101 -31 3 -32 3 2 90 c1 50 1 93 2 98 0 4 11 7 25 7
14 0 25 6 25 13 0 9 2 9 8 1 4 -7 6 -58 4 -114z m-2601 70 c17 0 19 -8 19 -75
l0 -75 -35 0 -35 0 0 81 c0 70 2 80 16 75 9 -3 24 -6 35 -6z m8435 -38 c-11
-10 -15 4 -8 28 l7 25 3 -23 c2 -13 1 -26 -2 -30z m-5373 -13 c-6 -6 -7 3 -4
23 4 28 6 29 9 9 2 -13 0 -27 -5 -32z m3358 37 c-8 -10 -9 -16 -1 -21 5 -3 10
-42 10 -91 0 -80 -1 -84 -22 -85 l-23 -2 23 -4 c30 -6 23 -27 -11 -31 l-27 -3
0 121 c0 80 3 119 10 115 6 -4 7 -12 4 -18 -4 -7 3 -2 15 11 24 24 41 31 22 8z
m864 5 c3 -5 1 -13 -5 -16 -6 -4 -8 -15 -5 -26 4 -11 2 -19 -4 -19 -6 0 -11
16 -11 35 0 33 12 46 25 26z m35 -21 c0 -5 -10 -10 -22 -9 -22 0 -22 1 -3 9
11 5 21 9 23 9 1 1 2 -3 2 -9z m-5 -30 c-3 -5 -12 -10 -18 -10 -7 0 -6 4 3 10
19 12 23 12 15 0z m-69 -35 c-3 -11 -6 -28 -6 -37 0 -13 -8 -17 -35 -16 -31 1
-35 4 -35 30 0 20 5 28 18 28 12 0 14 2 4 8 -8 5 1 8 23 8 31 -1 35 -4 31 -21z
m-6380 -52 c-3 -38 -6 -71 -6 -75 0 -5 -17 -8 -37 -8 l-38 0 -2 -50 c-1 -53
-19 -88 -36 -71 -5 5 -16 7 -23 4 -11 -4 -14 13 -14 87 0 81 2 91 18 89 55 -5
62 0 62 40 0 39 1 40 38 44 20 2 39 4 41 5 2 1 1 -28 -3 -65z m6525 55 c1 -7
2 -17 4 -23 1 -5 3 -33 3 -62 2 -51 3 -52 35 -55 l32 -3 2 -110 c1 -60 -3
-115 -8 -121 -7 -8 -6 -14 3 -17 9 -4 7 -6 -4 -6 -9 -1 -23 -4 -32 -7 -14 -5
-16 10 -16 125 l0 131 -42 0 -43 0 2 77 c1 43 2 79 3 81 1 9 60 -1 61 -10z
m319 -3 c10 -13 9 -15 -8 -15 -15 0 -20 5 -16 15 4 8 7 15 9 15 1 0 8 -7 15
-15z m-63 -31 c7 -19 -13 -34 -42 -33 -19 1 -19 2 -1 6 15 4 16 7 5 15 -11 8
-10 9 3 4 10 -3 20 -1 23 4 3 5 -3 11 -12 13 -17 4 -17 5 0 6 10 0 20 -6 24
-15z m-6737 -17 c10 -4 8 -6 -7 -6 -16 -1 -23 5 -23 17 0 10 3 13 8 6 4 -6 14
-14 22 -17z m6757 -54 c-2 -16 -4 -3 -4 27 0 30 2 43 4 28 2 -16 2 -40 0 -55z
m117 71 c18 -7 22 -34 5 -34 -5 0 -7 4 -4 10 3 5 0 7 -8 4 -8 -3 -17 2 -20 10
-7 17 1 20 27 10z m239 -21 c-7 -2 -21 -2 -30 0 -10 3 -4 5 12 5 17 0 24 -2
18 -5z m444 1 c-3 -3 -12 -4 -19 -1 -8 3 -5 6 6 6 11 1 17 -2 13 -5z m-8530
-36 c-3 -8 -6 -5 -6 6 -1 11 2 17 5 13 3 -3 4 -12 1 -19z m162 -10 c-1 -31 -2
-31 -8 -8 -7 24 -7 24 -13 4 -3 -12 -15 -23 -27 -27 -18 -4 -21 -1 -21 29 0
32 2 34 35 34 33 0 35 -2 34 -32z m1683 -3 c4 -32 2 -35 -23 -35 -15 0 -34 -2
-42 -6 -11 -4 -14 4 -14 35 0 41 0 41 37 41 36 0 38 -2 42 -35z m1050 8 c7
-51 -1 -63 -38 -63 l-34 0 0 -126 c0 -111 -2 -125 -16 -120 -8 3 -26 3 -39 0
-20 -5 -24 -13 -27 -52 -3 -42 -6 -47 -29 -50 -23 -3 -27 1 -32 35 -4 21 -7
64 -7 96 l0 57 40 0 40 0 0 105 0 105 25 0 c14 0 30 9 37 20 9 13 24 20 44 20
27 0 32 -4 36 -27z m-1282 -158 l0 -175 -33 0 c-17 0 -48 -4 -66 -10 -19 -5
-36 -9 -37 -7 -1 1 -4 15 -6 31 -3 27 1 31 35 39 l37 9 0 125 0 125 30 11 c17
6 30 15 30 19 0 4 2 8 5 8 3 0 5 -79 5 -175z m4179 158 c-2 -32 -14 -58 -28
-61 -22 -4 -41 18 -41 49 0 26 3 29 35 29 27 0 35 -4 34 -17z m2581 -18 c0
-26 -4 -35 -16 -35 -11 0 -15 6 -11 20 3 11 1 18 -4 14 -5 -3 -9 4 -9 15 0 14
6 21 20 21 16 0 20 -7 20 -35z m-440 -49 l0 -74 40 5 40 6 0 -37 c0 -35 -1
-36 -40 -36 l-40 0 0 -120 0 -120 35 0 35 0 0 -115 0 -115 -35 0 -35 0 0 113
c0 101 -2 113 -20 125 -12 7 -20 8 -20 2 0 -5 -8 -10 -17 -10 -19 0 -20 17
-14 353 l1 97 35 0 35 0 0 -74z m579 32 c1 -5 -11 -7 -26 -7 -17 1 -21 3 -10
6 9 2 17 14 18 26 0 21 1 21 9 2 5 -11 9 -23 9 -27z m-8746 -5 c-7 -2 -21 -2
-30 0 -10 3 -4 5 12 5 17 0 24 -2 18 -5z m385 -55 c3 -37 2 -38 -30 -38 -33 0
-33 0 -30 41 4 37 6 40 31 37 22 -3 26 -8 29 -40z m1762 -185 l0 -223 -30 0
-30 0 0 209 c0 115 3 216 6 224 3 8 16 14 30 13 l24 -1 0 -222z m1187 195 c-3
-8 -6 -5 -6 6 -1 11 2 17 5 13 3 -3 4 -12 1 -19z m3190 -10 c-3 -7 -5 -2 -5
12 0 14 2 19 5 13 2 -7 2 -19 0 -25z m-6329 -52 c2 12 52 6 52 -6 0 -4 -16 -8
-35 -8 l-35 0 2 47 1 46 7 -45 c4 -25 8 -40 8 -34z m6381 -63 c0 -93 -3 -131
-9 -115 -5 12 -13 22 -17 22 -11 0 -3 194 8 198 5 2 9 10 9 18 0 8 2 14 5 14
3 0 5 -62 4 -137z m-5429 117 c0 -5 -2 -10 -4 -10 -3 0 -8 5 -11 10 -3 6 -1
10 4 10 6 0 11 -4 11 -10z m5290 -110 c0 -13 -6 -20 -17 -19 -11 0 -13 3 -5 6
6 2 12 11 12 19 0 8 2 14 5 14 3 0 5 -9 5 -20z m87 -87 c-2 -21 -4 -4 -4 37 0
41 2 58 4 38 2 -21 2 -55 0 -75z m-5567 86 c0 -3 9 -9 20 -12 16 -4 20 -14 20
-46 0 -40 -1 -41 -35 -41 l-35 0 0 53 c0 41 4 54 15 54 8 0 15 -4 15 -8z
m1789 -109 c1 -55 -1 -109 -4 -120 -6 -19 -44 -29 -46 -12 -1 4 -2 58 -3 120
l-3 112 27 0 26 0 3 -100z m4829 -67 l-3 -168 -30 0 -30 0 -3 155 c-1 85 0
160 2 167 3 7 19 13 36 13 l30 0 -2 -167z m689 135 c-3 -7 -5 -2 -5 12 0 14 2
19 5 13 2 -7 2 -19 0 -25z m43 22 c0 -5 -8 -10 -17 -10 -15 0 -16 2 -3 10 19
12 20 12 20 0z m-25 -69 c-6 -5 -25 10 -25 20 0 5 6 4 14 -3 8 -7 12 -15 11
-17z m-2508 -43 c-3 -8 -6 -5 -6 6 -1 11 2 17 5 13 3 -3 4 -12 1 -19z m-2649
-115 l3 -123 -30 0 -30 0 -3 -87 -3 -88 -32 -3 -33 -3 0 110 0 111 29 0 c16 0
32 -6 35 -12 3 -7 4 40 3 105 l-2 118 30 -3 30 -3 3 -122z m3407 107 c3 -5 1
-10 -4 -10 -6 0 -11 5 -11 10 0 6 2 10 4 10 3 0 8 -4 11 -10z m-25 -95 l0 -95
-30 0 -30 0 0 95 0 95 30 0 30 0 0 -95z m-4810 1 c0 -47 -4 -87 -10 -91 -5 -3
-21 -3 -35 1 -25 6 -26 9 -24 73 3 93 6 101 40 101 l29 0 0 -84z m4950 -81 l0
-165 -35 0 c-33 0 -35 -2 -35 -34 0 -31 -3 -34 -22 -31 -52 10 -54 5 -50 -130
3 -98 1 -125 -9 -125 -10 0 -10 -3 -1 -12 8 -8 12 -48 12 -113 l0 -102 -30 5
c-30 4 -30 5 -30 71 0 36 -3 144 -7 239 l-6 172 36 0 37 0 0 65 c0 36 3 65 8
66 4 0 19 3 35 5 25 4 27 2 27 -31 0 -28 4 -35 19 -35 11 0 23 5 27 12 4 6 3
9 -2 6 -5 -3 -14 0 -21 7 -10 10 -9 15 4 19 9 4 20 1 25 -6 5 -8 7 -2 4 16 -6
33 -16 48 -16 23 0 -9 -6 -17 -12 -17 -10 0 -13 33 -13 130 l0 130 28 0 27 0
0 -165z m-3765 130 c18 0 20 -8 23 -87 l3 -88 -31 0 -30 0 1 103 c0 56 3 95 7
87 4 -8 16 -15 27 -15z m-2005 -71 c0 -2 -7 -4 -15 -4 -8 0 -15 4 -15 10 0 5
7 7 15 4 8 -4 15 -8 15 -10z m1419 -26 c-2 -61 -12 -101 -26 -106 -10 -3 -13
15 -13 66 0 71 4 82 27 82 9 0 13 -13 12 -42z m-1379 -73 c0 -66 -4 -105 -10
-105 -6 0 -9 10 -8 23 2 12 -1 23 -6 24 -13 2 -26 25 -26 47 0 12 5 16 15 12
8 -3 15 -1 15 4 0 6 -4 10 -9 10 -5 0 -11 11 -13 25 -3 13 -2 24 1 23 28 -3
29 6 1 12 l-35 7 33 2 c17 0 32 6 32 11 0 6 2 10 5 10 3 0 5 -47 5 -105z
m1410 90 c0 -8 -4 -15 -10 -15 -5 0 -10 7 -10 15 0 8 5 15 10 15 6 0 10 -7 10
-15z m328 -107 c-2 -119 -2 -120 -8 -43 -6 74 -7 76 -9 25 -1 -30 -5 -49 -8
-41 -4 10 -9 8 -19 -10 -12 -21 -13 -11 -14 84 l0 107 30 0 30 0 -2 -122z
m-1801 15 c-2 -16 -4 -5 -4 22 0 28 2 40 4 28 2 -13 2 -35 0 -50z m2530 -60
c-2 -21 -4 -6 -4 32 0 39 2 55 4 38 2 -18 2 -50 0 -70z m2789 40 c-11 -11 -19
6 -11 24 8 17 8 17 12 0 3 -10 2 -21 -1 -24z m-3863 7 c3 -11 1 -20 -4 -20 -5
0 -9 9 -9 20 0 11 2 20 4 20 2 0 6 -9 9 -20z m4123 -2 c-3 -13 -6 -33 -6 -45
0 -18 -6 -23 -25 -23 -22 0 -25 4 -25 35 0 31 3 35 28 36 l27 1 -25 8 -25 8
29 1 c25 1 28 -2 22 -21z m-3256 -30 c0 -17 3 -19 9 -9 6 9 10 5 13 -16 4 -31
-16 -63 -26 -40 -3 7 -5 -9 -3 -35 2 -44 0 -48 -20 -48 -22 0 -23 3 -23 85 0
84 0 85 25 85 19 0 25 -5 25 -22z m2606 -5 c-10 -10 -19 5 -10 18 6 11 8 11
12 0 2 -7 1 -15 -2 -18z m-2416 7 c0 -5 -4 -10 -10 -10 -5 0 -10 5 -10 10 0 6
5 10 10 10 6 0 10 -4 10 -10z m-1823 -6 c-3 -3 -12 -4 -19 -1 -8 3 -5 6 6 6
11 1 17 -2 13 -5z m668 -5 c4 -6 13 -8 20 -5 9 3 12 -5 9 -27 -1 -18 -4 -77
-4 -131 -2 -101 -11 -126 -44 -126 -14 0 -16 20 -16 143 0 79 3 147 7 150 9
10 21 8 28 -4z m-722 -15 c-5 -14 -3 -15 14 -6 15 8 21 7 31 -9 17 -27 16 -29
-23 -29 -32 0 -35 2 -35 30 0 17 4 30 10 30 5 0 7 -7 3 -16z m10 -61 c-7 -2
-19 -2 -25 0 -7 3 -2 5 12 5 14 0 19 -2 13 -5z m5205 -2 c22 -13 11 -56 -15
-59 -19 -3 -23 1 -23 26 0 40 12 50 38 33z m1689 -23 c-3 -7 -5 -2 -5 12 0 14
2 19 5 13 2 -7 2 -19 0 -25z m-6854 -11 c4 3 7 1 7 -5 0 -7 -9 -12 -19 -12
-14 0 -19 6 -18 21 1 18 3 18 13 5 6 -9 14 -13 17 -9z m1654 -9 c-3 -7 -5 -2
-5 12 0 14 2 19 5 13 2 -7 2 -19 0 -25z m-1697 1 c0 -5 -4 -9 -10 -9 -5 0 -10
7 -10 16 0 8 5 12 10 9 6 -3 10 -10 10 -16z m1139 -16 c2 -2 -5 -3 -17 -3 -14
0 -22 6 -22 16 0 14 3 15 18 3 9 -7 19 -15 21 -16z m4897 -39 c3 -25 4 -69 0
-97 -3 -29 -3 -82 1 -119 l6 -68 38 0 c39 0 39 0 39 -40 0 -36 -13 -55 -22
-30 -2 7 -11 5 -23 -4 -17 -13 -18 -18 -7 -35 10 -17 10 -21 -2 -21 -9 0 -16
19 -20 59 -7 60 -16 71 -56 71 -17 0 -18 12 -19 165 l-2 165 30 0 c28 0 30 -3
37 -46z m-859 4 c-3 -8 -6 -5 -6 6 -1 11 2 17 5 13 3 -3 4 -12 1 -19z m-309
-85 l3 -53 -30 0 c-30 0 -31 1 -31 48 0 55 5 64 35 60 17 -3 20 -11 23 -55z
m-4980 9 c3 -31 2 -32 -36 -32 -36 0 -40 2 -35 23 10 45 13 48 40 44 23 -3 29
-9 31 -35z m1190 -94 c-3 -112 -3 -113 -28 -116 -25 -3 -25 -3 -27 93 -2 52 1
95 6 95 5 0 7 9 4 20 -4 16 0 20 21 20 l27 0 -3 -112z m559 80 c-3 -7 -5 -2
-5 12 0 14 2 19 5 13 2 -7 2 -19 0 -25z m33 -39 c0 8 3 12 6 8 3 -3 3 -15 -1
-28 -6 -17 -9 -19 -16 -8 -5 8 -9 21 -9 29 0 13 1 13 10 0 8 -12 10 -12 10 -1z
m-1123 -5 c-3 -3 -12 -4 -19 -1 -8 3 -5 6 6 6 11 1 17 -2 13 -5z m773 -104 c0
-102 -1 -110 -19 -110 -27 0 -35 17 -14 29 17 10 17 10 -1 11 -20 0 -20 0 0
16 18 15 18 15 -3 9 -24 -7 -25 0 -25 125 0 30 0 30 32 30 l30 0 0 -110z
m-805 90 c4 -6 4 -24 0 -40 -5 -23 -12 -29 -38 -32 -20 -2 -33 -9 -33 -18 -1
-8 -2 -25 -3 -37 -1 -19 -7 -23 -35 -23 -33 0 -35 -2 -38 -37 -3 -36 -5 -38
-40 -41 l-38 -3 0 40 0 41 40 0 40 0 0 40 c0 39 1 40 34 40 36 0 46 12 46 56
0 20 5 24 29 24 17 0 33 -5 36 -10z m4265 -35 c0 -28 -4 -35 -19 -35 -22 0
-32 30 -19 54 16 29 38 19 38 -19z m398 -46 c-16 -10 -16 -12 -10 41 l5 45 9
-39 c6 -29 5 -42 -4 -47z m-35 -6 c-7 -2 -19 -2 -25 0 -7 3 -2 5 12 5 14 0 19
-2 13 -5z m17 -113 l0 -100 -32 3 -33 2 -3 65 c-2 36 0 80 3 98 5 27 10 32 35
32 l30 0 0 -100z m-3720 80 c0 -5 -7 -7 -15 -4 -8 4 -15 8 -15 10 0 2 7 4 15
4 8 0 15 -4 15 -10z m3745 0 c3 -5 1 -10 -4 -10 -6 0 -11 5 -11 10 0 6 2 10 4
10 3 0 8 -4 11 -10z m-3707 -107 l-3 -66 -33 -1 -32 -1 2 60 2 60 4 -50 c3
-38 6 -45 12 -30 7 17 9 17 9 3 1 -10 7 -18 15 -18 9 0 14 10 13 28 -1 15 1
50 2 77 5 72 13 17 9 -62z m422 -25 l0 -118 -35 0 -35 0 0 114 c0 122 1 124
53 122 15 0 17 -13 17 -118z m3038 74 c3 -19 -6 -27 -29 -24 -4 1 -5 -8 -2
-18 3 -11 -3 -32 -12 -47 -16 -24 -16 -26 -1 -20 9 4 14 3 11 -2 -3 -5 0 -13
6 -17 8 -4 7 -9 -2 -15 -11 -7 -10 -9 4 -9 15 0 16 -2 5 -14 -7 -8 -15 -12
-17 -10 -2 2 -10 -1 -16 -6 -9 -8 -14 7 -18 57 -12 128 -11 141 21 146 40 6
47 3 50 -21z m-3681 -14 c-3 -7 -5 -2 -5 12 0 14 2 19 5 13 2 -7 2 -19 0 -25z
m4023 7 c0 -8 -4 -15 -10 -15 -5 0 -7 7 -4 15 4 8 8 15 10 15 2 0 4 -7 4 -15z
m-33 -17 c-3 -8 -6 -5 -6 6 -1 11 2 17 5 13 3 -3 4 -12 1 -19z m-4000 -40 c-3
-7 -5 -2 -5 12 0 14 2 19 5 13 2 -7 2 -19 0 -25z m4859 -25 c-10 -10 -19 5
-10 18 6 11 8 11 12 0 2 -7 1 -15 -2 -18z m-4856 -14 c0 -5 -13 -9 -30 -9 -18
0 -30 5 -30 13 0 9 10 12 30 9 17 -2 30 -8 30 -13z m-972 -41 c-3 -28 -7 -32
-33 -33 -21 0 -31 5 -33 18 -6 32 6 47 38 47 29 0 31 -2 28 -32z m1122 -14 c0
-34 -2 -36 -26 -31 -32 6 -54 -16 -54 -54 0 -27 -3 -29 -35 -29 -34 0 -35 1
-35 40 l0 40 40 0 c37 0 40 2 40 28 0 36 6 42 42 42 26 0 28 -3 28 -36z m3686
14 c-3 -13 -6 -31 -6 -40 0 -13 -8 -18 -29 -18 -26 0 -29 4 -33 35 -5 43 -3
45 40 45 31 0 34 -2 28 -22z m-520 3 c-3 -5 1 -11 9 -14 9 -4 12 -1 8 9 -3 7
0 14 6 14 6 0 11 -6 11 -14 0 -8 3 -21 6 -30 5 -12 -1 -16 -24 -16 -17 0 -34
4 -37 10 -3 6 1 7 9 4 9 -3 16 -1 16 5 0 6 -7 11 -15 11 -9 0 -12 6 -9 15 4 8
10 15 16 15 5 0 7 -4 4 -9z m164 -31 c0 -11 -7 -20 -15 -20 -13 0 -13 3 -3 20
7 11 14 20 15 20 2 0 3 -9 3 -20z m-4383 -47 c4 -32 3 -33 -31 -33 -35 0 -36
1 -36 36 0 34 1 35 32 32 28 -3 32 -7 35 -35z m4916 10 c3 -5 -1 -14 -9 -21
-12 -11 -14 -9 -14 8 0 20 14 27 23 13z m-655 -243 c0 -106 -3 -167 -8 -155
-5 11 -9 15 -9 8 -1 -7 -8 -10 -16 -6 -10 3 -15 1 -13 -7 2 -7 -3 -15 -9 -17
-10 -4 -13 33 -13 160 0 91 -3 172 -6 181 -4 10 -1 16 8 16 7 0 22 10 33 23
l19 22 7 -25 c4 -14 7 -104 7 -200z m-4165 174 l28 -6 -3 -116 -3 -117 -30 -3
-30 -3 3 96 3 95 -34 0 c-32 0 -34 2 -34 36 0 39 -4 38 100 18z m797 -29 c0
-33 -2 -35 -35 -35 -21 0 -35 5 -35 13 0 6 -3 22 -6 35 -6 20 -3 22 35 22 40
0 41 -1 41 -35z m500 8 c0 -28 -16 -47 -34 -40 -9 4 -16 18 -16 32 0 20 5 25
25 25 17 0 25 -5 25 -17z m112 -10 c-5 -10 -12 -25 -15 -33 -3 -8 -4 0 -4 17
1 19 7 33 15 33 9 0 10 -5 4 -17z m3015 -30 c-3 -10 -5 -4 -5 12 0 17 2 24 5
18 2 -7 2 -21 0 -30z m210 -5 c-3 -7 -5 -2 -5 12 0 14 2 19 5 13 2 -7 2 -19 0
-25z m-3177 9 c0 -7 -11 -14 -25 -15 -14 -1 -25 3 -25 9 0 5 4 8 8 5 4 -2 14
-1 22 5 19 11 20 11 20 -4z m-210 -97 l0 -70 -30 0 -30 0 0 70 0 70 30 0 30 0
0 -70z m3707 -62 c-2 -13 -4 -3 -4 22 0 25 2 35 4 23 2 -13 2 -33 0 -45z
m-4987 -78 c0 -33 -3 -40 -19 -40 -40 0 -51 -11 -51 -51 0 -39 0 -39 -40 -39
-33 0 -38 3 -34 18 15 45 29 62 51 62 18 0 23 6 24 25 2 42 3 45 19 55 34 22
50 12 50 -30z m3890 -18 c0 -38 0 -38 -35 -34 -32 4 -35 7 -35 38 0 32 2 34
35 34 34 0 35 -1 35 -38z m-2624 -4 c4 -7 3 -8 -4 -4 -7 4 -12 2 -12 -5 0 -7
-3 -10 -6 -6 -6 5 3 27 11 27 2 0 7 -5 11 -12z m3725 -83 c5 4 9 2 9 -3 0 -6
-7 -12 -15 -16 -12 -4 -15 5 -13 57 l2 62 3 -53 c2 -30 8 -50 14 -47z m-4497
-155 c-4 -19 -7 -38 -6 -41 1 -4 -10 -9 -23 -12 l-25 -4 0 143 0 143 28 3 27
3 3 -100 c2 -55 0 -116 -4 -135z m826 208 l90 4 0 -54 c0 -33 -4 -48 -9 -40
-13 21 -44 10 -52 -18 l-7 -25 -1 28 c-1 26 -3 27 -51 27 -37 0 -52 4 -57 16
-3 9 0 20 8 25 12 8 11 11 -3 20 -10 5 -18 15 -17 22 0 7 2 8 5 2 2 -6 40 -9
94 -7z m890 -83 l0 -85 -37 0 -38 0 3 85 3 85 35 0 34 0 0 -85z m2044 70 c16
-12 18 -19 8 -40 -6 -14 -17 -25 -24 -25 -9 0 -8 -3 2 -10 13 -8 12 -10 -3
-10 -14 0 -17 8 -16 50 2 54 4 57 33 35z m35 -7 c0 -16 -2 -18 -6 -8 -3 8 -11
18 -17 22 -7 5 -4 8 7 8 11 0 17 -7 16 -22z m-469 -114 l0 -114 -35 0 -35 0 0
118 0 118 35 -4 35 -4 0 -114z m1027 -61 c-2 -32 -3 -8 -3 52 0 61 1 87 3 58
2 -29 2 -78 0 -110z m-558 100 c-1 -43 -2 -45 -9 -18 -11 44 -11 65 0 65 6 0
9 -21 9 -47z m-2849 -3 c0 -5 -5 -10 -11 -10 -5 0 -7 5 -4 10 3 6 8 10 11 10
2 0 4 -4 4 -10z m30 -21 c0 8 2 12 5 9 10 -9 -5 -35 -20 -35 -17 0 -17 0 -9
22 5 13 8 14 15 3 7 -11 9 -10 9 1z m-63 -21 c-3 -8 -6 -5 -6 6 -1 11 2 17 5
13 3 -3 4 -12 1 -19z m2253 -249 l0 -240 -32 3 c-18 2 -32 6 -30 11 1 4 2 111
2 237 l0 230 30 0 30 0 0 -241z m225 162 c-3 -6 -11 -11 -17 -11 -6 0 -6 6 2
15 14 17 26 13 15 -4z m161 -108 c-3 -8 -6 -23 -6 -34 0 -14 -7 -19 -30 -19
-27 0 -30 3 -30 34 0 32 2 34 36 34 27 0 34 -3 30 -15z m801 -50 c-3 -10 -5
-4 -5 12 0 17 2 24 5 18 2 -7 2 -21 0 -30z m-2711 -160 c-3 -7 -19 -13 -36
-13 l-30 0 0 75 c0 41 4 75 9 75 5 0 7 -9 4 -20 -3 -11 0 -20 6 -20 6 0 11 6
12 13 0 6 7 -1 14 -18 14 -30 14 -29 17 30 2 51 3 47 5 -24 2 -46 2 -90 -1
-98z m1127 11 c-6 -19 -9 1 -10 72 l-1 99 10 -72 c6 -43 6 -83 1 -99z m46 -46
l1 -128 -30 0 c-27 0 -30 3 -29 33 1 30 1 31 9 7 8 -25 8 -25 10 5 1 26 3 27
10 10 8 -19 9 -19 9 3 1 12 -5 22 -11 22 -10 0 -10 2 0 9 20 12 16 25 -10 33
l-23 6 23 1 c19 1 21 5 16 26 -4 15 -2 25 5 25 6 0 11 17 10 43 -1 39 -2 40
-9 12 -10 -38 -12 -9 -3 36 7 33 7 33 14 9 4 -14 7 -82 8 -152z m-889 137 c6
4 10 -10 10 -39 0 -25 -4 -46 -10 -46 -5 0 -10 -13 -10 -30 0 -16 -5 -30 -12
-30 -6 0 -1 -9 12 -20 l23 -20 -30 0 c-27 0 -30 3 -29 30 1 20 5 29 14 25 8
-3 12 6 12 25 0 36 -17 49 -23 18 -3 -13 -3 -3 0 22 2 25 5 53 6 62 1 12 5 14
14 7 7 -6 17 -8 23 -4z m2478 -30 c-3 -3 -9 2 -12 12 -6 14 -5 15 5 6 7 -7 10
-15 7 -18z m-18 -1 c0 -2 -9 -4 -20 -4 -11 0 -20 4 -20 9 0 5 9 7 20 4 11 -3
20 -7 20 -9z m-920 -8 c0 -2 -9 -6 -20 -9 -11 -3 -18 -1 -14 4 5 9 34 13 34 5z
m-720 -186 l0 -120 -29 0 c-36 0 -38 8 -40 139 l-2 101 35 0 36 0 0 -120z
m-1030 -4 l0 -113 -31 1 -31 1 -1 105 -2 105 30 6 c17 4 31 7 33 8 1 0 2 -50
2 -113z m217 72 c-3 -8 -6 -5 -6 6 -1 11 2 17 5 13 3 -3 4 -12 1 -19z m1057
-170 c22 -15 36 -8 37 20 0 23 1 24 8 7 13 -31 2 -45 -35 -45 -33 0 -34 1 -33
38 1 27 3 31 6 12 3 -14 10 -28 17 -32z m-253 -105 c-2 -43 -6 -72 -8 -65 -3
6 -9 12 -14 12 -6 0 -7 -4 -4 -10 3 -5 -1 -10 -9 -10 -13 0 -16 14 -16 75 l0
75 28 0 27 0 -4 -77z m-402 -159 c1 -49 -1 -64 -10 -58 -8 5 -9 3 -4 -6 4 -7
2 -16 -6 -21 -10 -6 -11 -9 -1 -9 6 0 12 -9 12 -20 0 -11 -6 -20 -12 -20 -7 0
-23 -3 -36 -6 -23 -7 -23 -6 -20 92 l3 99 30 6 c17 4 33 7 36 8 3 0 7 -29 8
-65z m-167 24 c-7 -7 -16 -6 -29 2 -16 10 -16 11 5 7 16 -4 22 0 23 11 0 12 2
13 6 4 3 -8 1 -18 -5 -24z m198 -68 c0 -5 -5 -10 -11 -10 -5 0 -7 5 -4 10 3 6
8 10 11 10 2 0 4 -4 4 -10z"/>
<path d="M3768 9513 c7 -3 16 -2 19 1 4 3 -2 6 -13 5 -11 0 -14 -3 -6 -6z"/>
<path d="M4632 7218 c6 -18 25 -20 31 -3 5 10 0 15 -14 15 -12 0 -19 -5 -17
-12z"/>
<path d="M4606 7165 c7 -17 44 -21 44 -5 0 6 5 10 11 10 5 0 7 -4 4 -10 -3 -5
-2 -10 3 -10 6 0 12 7 16 15 4 12 -4 15 -39 15 -35 0 -43 -3 -39 -15z"/>
<path d="M4626 7125 c25 -19 44 -19 44 0 0 8 -5 15 -11 15 -5 0 -7 -4 -4 -10
3 -5 1 -10 -4 -10 -6 0 -11 5 -11 10 0 6 -8 10 -17 10 -15 0 -14 -2 3 -15z"/>
<path d="M4878 7333 c7 -3 16 -2 19 1 4 3 -2 6 -13 5 -11 0 -14 -3 -6 -6z"/>
<path d="M5962 7040 c0 -14 2 -19 5 -12 2 6 2 18 0 25 -3 6 -5 1 -5 -13z"/>
<path d="M5030 6511 c0 -25 -5 -30 -27 -34 -26 -4 -26 -4 5 -6 30 -1 32 1 32
34 0 19 -2 35 -5 35 -3 0 -5 -13 -5 -29z"/>
<path d="M4408 6733 c6 -2 18 -2 25 0 6 3 1 5 -13 5 -14 0 -19 -2 -12 -5z"/>
<path d="M4418 6703 c12 -2 30 -2 40 0 9 3 -1 5 -23 4 -22 0 -30 -2 -17 -4z"/>
<path d="M4611 6658 c0 -7 4 -22 9 -33 7 -17 9 -15 9 13 1 17 -3 32 -9 32 -5
0 -10 -6 -9 -12z"/>
<path d="M4220 6603 c1 -25 2 -26 14 -10 7 9 20 17 29 17 9 0 19 5 22 10 4 6
-8 10 -29 10 -33 0 -36 -3 -36 -27z"/>
<path d="M4021 6384 c0 -11 3 -14 6 -6 3 7 2 16 -1 19 -3 4 -6 -2 -5 -13z"/>
<path d="M4500 6291 c0 -17 5 -31 10 -31 6 0 10 11 10 24 0 14 -4 28 -10 31
-6 4 -10 -7 -10 -24z"/>
<path d="M5798 6743 c7 -3 16 -2 19 1 4 3 -2 6 -13 5 -11 0 -14 -3 -6 -6z"/>
<path d="M6292 6490 c0 -19 2 -27 5 -17 2 9 2 25 0 35 -3 9 -5 1 -5 -18z"/>
<path d="M6076 6298 c-10 -31 -2 -43 31 -45 30 -1 33 1 33 28 0 26 -3 29 -30
29 -17 0 -32 -6 -34 -12z"/>
<path d="M5902 6270 c0 -14 2 -19 5 -12 2 6 2 18 0 25 -3 6 -5 1 -5 -13z"/>
<path d="M5922 6270 c0 -14 2 -19 5 -12 2 6 2 18 0 25 -3 6 -5 1 -5 -13z"/>
<path d="M5898 6233 c6 -2 18 -2 25 0 6 3 1 5 -13 5 -14 0 -19 -2 -12 -5z"/>
<path d="M5940 6200 c0 -36 2 -40 26 -40 19 0 28 -7 35 -30 9 -24 17 -30 40
-30 l29 0 0 70 0 70 -65 0 -65 0 0 -40z"/>
<path d="M6080 6061 c0 -28 14 -41 46 -41 9 0 14 11 14 35 0 32 -2 35 -30 35
-26 0 -30 -3 -30 -29z"/>
<path d="M5734 5984 c3 -9 6 -22 6 -30 0 -8 7 -14 15 -14 10 0 15 10 15 30 0
24 -4 30 -21 30 -15 0 -19 -4 -15 -16z"/>
<path d="M7452 6500 c0 -14 2 -19 5 -12 2 6 2 18 0 25 -3 6 -5 1 -5 -13z"/>
<path d="M7469 6438 l-2 -43 -6 35 c-12 67 -21 3 -19 -138 1 -93 3 -123 8 -92
l7 45 1 -42 c1 -23 7 -45 12 -48 7 -4 10 52 10 159 0 91 -2 166 -5 166 -3 0
-6 -19 -6 -42z"/>
<path d="M3231 5824 c0 -11 3 -14 6 -6 3 7 2 16 -1 19 -3 4 -6 -2 -5 -13z"/>
<path d="M2305 5419 c-4 -6 -5 -12 -2 -15 2 -3 7 2 10 11 7 17 1 20 -8 4z"/>
<path d="M5718 5603 c6 -2 18 -2 25 0 6 3 1 5 -13 5 -14 0 -19 -2 -12 -5z"/>
<path d="M5675 5580 c3 -5 8 -10 11 -10 2 0 4 5 4 10 0 6 -5 10 -11 10 -5 0
-7 -4 -4 -10z"/>
<path d="M4072 4995 c0 -16 2 -22 5 -12 2 9 2 23 0 30 -3 6 -5 -1 -5 -18z"/>
<path d="M4372 4820 c0 -14 2 -19 5 -12 2 6 2 18 0 25 -3 6 -5 1 -5 -13z"/>
<path d="M5940 4761 c0 -5 9 -11 19 -14 14 -3 18 -1 14 9 -6 15 -33 19 -33 5z"/>
<path d="M4878 4533 c7 -3 16 -2 19 1 4 3 -2 6 -13 5 -11 0 -14 -3 -6 -6z"/>
<path d="M3809 4217 c-4 -43 -4 -44 29 -45 30 -1 32 1 32 33 0 19 1 38 3 43 1
4 -12 8 -29 10 -31 3 -32 2 -35 -41z m51 -17 c0 -11 -4 -20 -9 -20 -5 0 -7 9
-4 20 3 11 7 20 9 20 2 0 4 -9 4 -20z"/>
<path d="M3956 4242 c-3 -3 -5 -19 -5 -36 1 -17 3 -24 6 -15 3 11 11 15 26 12
18 -4 19 -3 7 6 -10 7 -11 11 -2 11 6 0 12 4 12 9 0 10 -36 21 -44 13z"/>
<path d="M3880 4130 c0 -16 7 -20 30 -20 20 0 30 5 30 15 0 8 -5 15 -11 15 -5
0 -7 -6 -4 -12 4 -7 0 -5 -8 5 -19 23 -37 22 -37 -3z"/>
<path d="M6050 3985 c0 -45 0 -45 35 -45 35 0 35 0 35 45 0 45 0 45 -35 45
-35 0 -35 0 -35 -45z"/>
<path d="M6358 3955 c-3 -69 -2 -75 17 -75 17 0 17 -2 5 -10 -12 -8 -11 -10 7
-10 27 0 38 -33 30 -86 -4 -20 -2 -32 4 -29 5 4 9 69 9 146 l0 139 -34 0 -34
0 -4 -75z"/>
<path d="M6197 3953 c-5 -4 -22 -7 -40 -8 -31 0 -32 -1 -30 -40 1 -22 2 -70 2
-107 l1 -68 34 0 34 0 -2 73 c-1 72 -1 72 27 75 23 3 27 8 27 33 0 16 0 32 0
37 1 10 -44 15 -53 5z m-39 -37 c-7 -8 -15 -12 -17 -11 -5 6 10 25 20 25 5 0
4 -6 -3 -14z"/>
<path d="M6257 3867 c-3 -7 -5 -60 -4 -117 0 -102 0 -105 -21 -104 -22 1 -22
-1 -20 -170 1 -94 3 -150 5 -123 4 45 6 47 34 47 l29 0 0 85 0 85 34 0 c19 0
37 -6 39 -12 3 -7 6 11 6 41 1 52 0 53 -24 47 l-25 -6 0 120 c0 120 0 120 -24
120 -13 0 -26 -6 -29 -13z"/>
<path d="M4061 3838 c-1 -9 3 -19 8 -23 5 -3 8 -16 5 -30 -2 -13 0 -26 4 -29
5 -3 10 15 10 40 1 26 -2 43 -7 40 -5 -4 -12 0 -14 6 -4 8 -6 7 -6 -4z"/>
<path d="M3951 3504 c0 -11 3 -14 6 -6 3 7 2 16 -1 19 -3 4 -6 -2 -5 -13z"/>
<path d="M6355 3490 c3 -5 8 -10 11 -10 2 0 4 5 4 10 0 6 -5 10 -11 10 -5 0
-7 -4 -4 -10z"/>
<path d="M3949 3453 c0 -10 -3 -30 -5 -45 -5 -29 1 -34 24 -19 17 10 12 73 -5
79 -7 2 -13 -5 -14 -15z"/>
<path d="M6780 3378 c0 -19 2 -20 10 -8 13 19 13 30 0 30 -5 0 -10 -10 -10
-22z"/>
<path d="M3959 3308 c-2 -7 -3 -63 -1 -125 3 -106 4 -112 25 -115 19 -3 23
-11 28 -58 3 -32 6 13 7 112 1 91 5 173 8 182 5 13 -1 16 -29 16 -19 0 -36 -6
-38 -12z"/>
<path d="M6740 3269 c0 -24 4 -29 25 -29 18 0 25 5 25 20 0 11 1 23 3 26 1 4
-10 8 -25 10 -25 2 -28 -1 -28 -27z"/>
<path d="M4105 3280 c-3 -5 1 -10 9 -10 9 0 16 5 16 10 0 6 -4 10 -9 10 -6 0
-13 -4 -16 -10z"/>
<path d="M4220 2952 l0 -198 35 4 35 4 0 194 0 194 -35 0 -35 0 0 -198z"/>
<path d="M4358 3143 c6 -2 18 -2 25 0 6 3 1 5 -13 5 -14 0 -19 -2 -12 -5z"/>
<path d="M6786 3095 c-3 -9 0 -15 9 -15 9 0 12 6 9 15 -4 8 -7 15 -9 15 -2 0
-5 -7 -9 -15z"/>
<path d="M4340 2821 c0 -48 16 -62 30 -26 16 42 13 65 -10 65 -17 0 -20 -7
-20 -39z"/>
<path d="M6120 2750 l0 -70 30 0 30 0 0 70 0 70 -30 0 -30 0 0 -70z"/>
<path d="M4160 2729 c0 -26 3 -30 22 -27 26 3 37 36 16 49 -25 17 -38 9 -38
-22z"/>
<path d="M4256 2682 c-3 -6 7 -12 22 -15 25 -5 41 -2 31 7 -12 10 -48 16 -53
8z"/>
<path d="M4953 2664 c-3 -8 -1 -25 5 -37 9 -19 10 -18 10 16 -1 40 -5 46 -15
21z"/>
<path d="M6487 2654 c7 -3 11 -11 9 -17 -1 -7 -1 -9 1 -4 3 4 9 5 14 2 5 -4 6
1 3 9 -3 9 -14 16 -23 15 -9 0 -11 -3 -4 -5z"/>
<path d="M4301 2634 c0 -11 3 -14 6 -6 3 7 2 16 -1 19 -3 4 -6 -2 -5 -13z"/>
<path d="M6190 2561 c0 -82 6 -101 30 -101 21 0 34 56 28 125 -3 35 -6 40 -30
43 l-28 3 0 -70z"/>
<path d="M3750 2611 c0 -5 7 -11 15 -15 9 -3 15 0 15 9 0 8 -7 15 -15 15 -8 0
-15 -4 -15 -9z"/>
<path d="M4170 2540 l0 -80 -39 0 c-37 0 -39 -2 -36 -27 2 -16 4 -52 4 -81 1
-48 3 -53 20 -47 13 4 27 -2 40 -16 12 -13 21 -17 21 -11 0 7 7 12 16 12 14 0
14 -3 4 -15 -8 -9 -8 -15 -2 -15 6 0 13 -15 15 -32 2 -18 4 -8 3 22 -1 50 -3
55 -23 54 -19 0 -23 5 -23 33 0 22 5 33 14 33 28 0 46 -12 46 -30 0 -11 5 -22
11 -26 8 -5 10 37 8 150 l-4 156 -37 0 -38 0 0 -80z"/>
<path d="M4913 2520 c0 -25 2 -35 4 -22 2 12 2 32 0 45 -2 12 -4 2 -4 -23z"/>
<path d="M6069 2531 c10 -6 10 -13 2 -28 -6 -12 -8 -42 -4 -72 5 -48 7 -51 34
-51 l29 0 0 80 c0 62 -3 80 -14 80 -8 0 -17 -6 -19 -12 -4 -10 -6 -10 -6 0 -1
6 -9 12 -18 12 -14 0 -15 -2 -4 -9z"/>
<path d="M4955 2380 c-3 -5 -1 -10 4 -10 6 0 11 5 11 10 0 6 -2 10 -4 10 -3 0
-8 -4 -11 -10z"/>
<path d="M4042 2350 c0 -14 2 -19 5 -12 2 6 2 18 0 25 -3 6 -5 1 -5 -13z"/>
<path d="M4957 2320 c3 -11 7 -20 9 -20 2 0 4 9 4 20 0 11 -4 20 -9 20 -5 0
-7 -9 -4 -20z"/>
<path d="M4310 2270 c0 -20 -5 -30 -15 -30 -22 0 -22 -334 -1 -356 16 -16 41
-19 31 -5 -3 5 -2 12 3 15 10 6 16 342 7 379 -9 36 -25 34 -25 -3z"/>
<path d="M6008 2293 c6 -2 18 -2 25 0 6 3 1 5 -13 5 -14 0 -19 -2 -12 -5z"/>
<path d="M6052 2270 c0 -14 2 -19 5 -12 2 6 2 18 0 25 -3 6 -5 1 -5 -13z"/>
<path d="M4601 2043 c1 -104 3 -180 6 -170 5 18 15 19 53 3 13 -5 15 13 18
125 2 72 1 153 -3 180 -7 48 -8 49 -41 49 l-34 0 1 -187z m29 -114 c0 -5 -4
-9 -10 -9 -5 0 -10 7 -10 16 0 8 5 12 10 9 6 -3 10 -10 10 -16z"/>
<path d="M6362 2185 c0 -16 2 -22 5 -12 2 9 2 23 0 30 -3 6 -5 -1 -5 -18z"/>
<path d="M5818 1969 c2 -17 8 -27 13 -22 9 9 1 53 -10 53 -4 0 -6 -14 -3 -31z"/>
<path d="M6108 1973 c7 -3 16 -2 19 1 4 3 -2 6 -13 5 -11 0 -14 -3 -6 -6z"/>
<path d="M5700 1875 c0 -45 0 -45 35 -45 33 0 35 2 35 33 0 41 -9 52 -42 54
-27 2 -28 0 -28 -42z"/>
<path d="M4346 1888 c-2 -7 -7 -26 -10 -41 -4 -18 -11 -25 -19 -20 -6 4 -26 6
-44 4 -28 -2 -33 1 -34 21 -1 13 -5 1 -9 -27 -9 -57 -12 -179 -5 -187 3 -2 18
-3 35 0 28 4 30 7 30 48 l0 44 50 0 51 0 -3 82 c-3 70 -6 83 -21 86 -9 2 -19
-2 -21 -10z"/>
<path d="M4300 1856 c0 -2 7 -7 16 -10 8 -3 12 -2 9 4 -6 10 -25 14 -25 6z"/>
<path d="M5410 1748 c0 -63 4 -98 9 -92 5 5 11 23 14 39 l4 30 2 -31 c1 -25 6
-33 26 -36 24 -5 25 -4 25 56 0 49 -4 64 -19 73 -13 8 -17 19 -14 37 5 23 2
26 -21 26 l-26 0 0 -102z m25 52 c3 -5 1 -10 -4 -10 -6 0 -11 5 -11 10 0 6 2
10 4 10 3 0 8 -4 11 -10z"/>
<path d="M4974 1824 c3 -9 6 -54 6 -100 l0 -84 30 0 30 0 0 100 0 100 -36 0
c-29 0 -35 -3 -30 -16z"/>
<path d="M5788 1733 c7 -3 16 -2 19 1 4 3 -2 6 -13 5 -11 0 -14 -3 -6 -6z"/>
<path d="M4368 1654 c-1 -31 0 -58 5 -61 4 -2 7 23 7 56 0 76 -7 79 -12 5z"/>
<path d="M5397 1590 c-3 -11 -1 -23 4 -26 5 -3 9 6 9 20 0 31 -6 34 -13 6z"/>
<path d="M4980 1289 l0 -281 23 6 c12 3 29 6 37 6 21 0 23 25 15 308 l-7 242
-34 0 -34 0 0 -281z"/>
<path d="M5415 1550 c-3 -5 -7 -73 -8 -150 l-2 -140 38 0 37 0 0 150 0 150
-29 0 c-17 0 -33 -4 -36 -10z"/>
<path d="M5203 1450 c0 -41 2 -58 4 -37 2 20 2 54 0 75 -2 20 -4 3 -4 -38z"/>
<path d="M5202 1285 c-1 -56 3 -86 13 -99 15 -20 15 -20 16 0 0 19 0 19 8 0 7
-18 8 -18 14 5 4 13 7 48 7 77 0 48 -2 52 -24 52 -18 0 -26 7 -29 23 -2 12 -5
-14 -5 -58z"/>
<path d="M4923 1280 c0 -25 2 -35 4 -22 2 12 2 32 0 45 -2 12 -4 2 -4 -23z"/>
<path d="M8120 5310 c0 -43 3 -50 20 -50 17 0 20 7 20 44 0 26 5 46 13 49 6 3
-3 6 -20 6 -33 1 -33 1 -33 -49z"/>
<path d="M7978 5235 c4 -42 6 -45 33 -45 28 0 29 2 29 45 0 44 -1 45 -33 45
-32 0 -32 0 -29 -45z"/>
<path d="M8332 5121 c-8 -5 -12 -23 -10 -47 3 -34 6 -39 31 -42 26 -3 27 -1
27 41 0 32 -5 47 -16 51 -19 7 -16 7 -32 -3z"/>
<path d="M8218 5113 c7 -3 16 -2 19 1 4 3 -2 6 -13 5 -11 0 -14 -3 -6 -6z"/>
<path d="M8372 5000 c0 -14 2 -19 5 -12 2 6 2 18 0 25 -3 6 -5 1 -5 -13z"/>
<path d="M8503 4953 c9 -2 25 -2 35 0 9 3 1 5 -18 5 -19 0 -27 -2 -17 -5z"/>
<path d="M8472 4920 c0 -14 2 -19 5 -12 2 6 2 18 0 25 -3 6 -5 1 -5 -13z"/>
<path d="M8541 4904 c0 -11 3 -14 6 -6 3 7 2 16 -1 19 -3 4 -6 -2 -5 -13z"/>
<path d="M8034 4698 c3 -13 6 -44 6 -70 0 -36 4 -48 15 -48 12 0 15 14 15 70
0 65 -2 70 -21 70 -17 0 -20 -4 -15 -22z"/>
<path d="M7930 4585 c0 -73 1 -75 25 -75 24 0 25 3 25 59 0 72 -6 91 -31 91
-17 0 -19 -8 -19 -75z"/>
<path d="M8030 4445 c0 -54 0 -55 30 -55 25 0 30 4 30 25 0 16 -9 29 -27 39
-18 10 -22 15 -12 16 9 0 19 7 23 15 4 11 -1 15 -19 15 -24 0 -25 -3 -25 -55z"/>
<path d="M8420 3549 c0 -5 5 -7 10 -4 6 3 10 8 10 11 0 2 -4 4 -10 4 -5 0 -10
-5 -10 -11z"/>
<path d="M2112 4923 c3 -33 7 -38 29 -41 20 -2 28 2 33 20 13 49 8 58 -30 58
-35 0 -35 -1 -32 -37z"/>
<path d="M2040 4859 c0 -6 9 -8 21 -4 16 5 19 4 14 -5 -5 -9 -4 -11 3 -6 20
12 13 26 -13 26 -14 0 -25 -5 -25 -11z"/>
<path d="M1878 4785 c-6 -31 12 -47 49 -43 23 2 29 8 31 36 3 31 2 32 -36 32
-34 0 -40 -3 -44 -25z"/>
<path d="M2180 4391 c0 -36 -2 -39 -35 -45 -33 -7 -35 -9 -35 -46 0 -39 1 -40
35 -40 20 0 49 7 65 15 17 9 31 12 31 8 3 -17 18 74 18 110 1 37 1 37 -39 37
-40 0 -40 0 -40 -39z"/>
<path d="M1963 4305 c0 -27 2 -38 4 -22 2 15 2 37 0 50 -2 12 -4 0 -4 -28z"/>
<path d="M2197 4230 c3 -11 7 -20 9 -20 2 0 4 9 4 20 0 11 -4 20 -9 20 -5 0
-7 -9 -4 -20z"/>
<path d="M3600 4606 c0 -9 5 -16 10 -16 6 0 10 4 10 9 0 6 -4 13 -10 16 -5 3
-10 -1 -10 -9z"/>
<path d="M5983 4285 c0 -18 19 -15 25 3 2 7 -3 12 -10 12 -8 0 -15 -7 -15 -15z"/>
<path d="M7571 4254 c0 -11 3 -14 6 -6 3 7 2 16 -1 19 -3 4 -6 -2 -5 -13z"/>
<path d="M8301 4314 c0 -11 3 -14 6 -6 3 7 2 16 -1 19 -3 4 -6 -2 -5 -13z"/>
<path d="M8440 4250 c0 -5 5 -10 11 -10 5 0 7 5 4 10 -3 6 -8 10 -11 10 -2 0
-4 -4 -4 -10z"/>
<path d="M1496 3951 c-3 -5 -3 -23 0 -40 6 -27 11 -31 40 -31 33 0 34 1 34 40
0 39 -1 40 -34 40 -19 0 -37 -4 -40 -9z"/>
<path d="M1170 3868 c0 -7 5 -20 10 -28 8 -13 10 -12 10 3 0 10 5 15 10 12 6
-4 8 -12 4 -18 -3 -7 1 -4 9 5 8 10 17 15 20 11 4 -3 7 -2 7 4 0 6 -10 13 -22
17 -35 9 -48 7 -48 -6z"/>
<path d="M1650 3863 c0 -10 5 -25 10 -33 8 -12 10 -10 11 10 l1 25 8 -25 c8
-24 8 -23 9 8 1 26 -3 32 -19 32 -12 0 -20 -7 -20 -17z"/>
<path d="M1300 3861 c0 -26 14 -41 39 -40 l26 1 -24 7 c-30 8 -38 28 -14 34
14 4 13 5 -4 6 -13 0 -23 -3 -23 -8z"/>
<path d="M1420 3769 c0 -5 5 -7 10 -4 6 3 10 8 10 11 0 2 -4 4 -10 4 -5 0 -10
-5 -10 -11z"/>
<path d="M2747 3977 c-5 -27 -6 -51 -3 -55 12 -12 17 7 14 54 l-3 49 -8 -48z"/>
<path d="M1761 3524 c0 -11 3 -14 6 -6 3 7 2 16 -1 19 -3 4 -6 -2 -5 -13z"/>
<path d="M7174 3518 c-4 -6 -3 -8 4 -4 7 4 12 -6 15 -26 4 -33 4 -33 5 5 2 36
-10 49 -24 25z"/>
<path d="M7178 3333 c7 -3 16 -2 19 1 4 3 -2 6 -13 5 -11 0 -14 -3 -6 -6z"/>
<path d="M7972 3468 c-15 -15 -16 -28 -2 -28 6 0 10 7 10 16 0 8 4 13 9 9 5
-3 12 -1 16 5 9 14 -18 13 -33 -2z"/>
<path d="M1561 3364 c0 -11 3 -14 6 -6 3 7 2 16 -1 19 -3 4 -6 -2 -5 -13z"/>
<path d="M8618 2993 c7 -3 16 -2 19 1 4 3 -2 6 -13 5 -11 0 -14 -3 -6 -6z"/>
<path d="M2585 3290 c-3 -6 1 -7 9 -4 18 7 21 14 7 14 -6 0 -13 -4 -16 -10z"/>
<path d="M2611 3214 c0 -11 3 -14 6 -6 3 7 2 16 -1 19 -3 4 -6 -2 -5 -13z"/>
<path d="M7043 3160 c0 -25 2 -35 4 -22 2 12 2 32 0 45 -2 12 -4 2 -4 -23z"/>
<path d="M2753 2840 c0 -25 2 -35 4 -22 2 12 2 32 0 45 -2 12 -4 2 -4 -23z"/>
<path d="M2671 2544 c0 -11 3 -14 6 -6 3 7 2 16 -1 19 -3 4 -6 -2 -5 -13z"/>
<path d="M1990 2730 c0 -5 5 -10 11 -10 5 0 7 5 4 10 -3 6 -8 10 -11 10 -2 0
-4 -4 -4 -10z"/>
<path d="M3041 2334 c0 -11 3 -14 6 -6 3 7 2 16 -1 19 -3 4 -6 -2 -5 -13z"/>
<path d="M7082 2290 c0 -19 2 -27 5 -17 2 9 2 25 0 35 -3 9 -5 1 -5 -18z"/>
<path d="M7081 2224 c0 -11 3 -14 6 -6 3 7 2 16 -1 19 -3 4 -6 -2 -5 -13z"/>
<path d="M6620 1590 c0 -5 5 -10 11 -10 5 0 7 5 4 10 -3 6 -8 10 -11 10 -2 0
-4 -4 -4 -10z"/>
<path d="M4796 1164 c4 -38 14 -42 14 -6 0 18 -4 32 -9 32 -4 0 -7 -12 -5 -26z"/>
<path d="M5155 590 c-3 -5 -1 -10 4 -10 6 0 11 5 11 10 0 6 -2 10 -4 10 -3 0
-8 -4 -11 -10z"/>
<path d="M5180 590 c0 -5 5 -10 10 -10 6 0 10 5 10 10 0 6 -4 10 -10 10 -5 0
-10 -4 -10 -10z"/>
<path d="M5152 525 c0 -22 3 -31 5 -21 4 15 7 16 14 5 6 -10 9 -8 9 9 0 13 -4
21 -9 17 -5 -3 -12 3 -14 12 -3 10 -5 0 -5 -22z"/>
<path d="M5418 10163 c7 -3 16 -2 19 1 4 3 -2 6 -13 5 -11 0 -14 -3 -6 -6z"/>
<path d="M5153 10073 c9 -2 25 -2 35 0 9 3 1 5 -18 5 -19 0 -27 -2 -17 -5z"/>
<path d="M4868 9753 c6 -2 18 -2 25 0 6 3 1 5 -13 5 -14 0 -19 -2 -12 -5z"/>
<path d="M4795 9420 c-8 -13 35 -13 55 0 11 7 7 10 -17 10 -17 0 -35 -4 -38
-10z"/>
<path d="M4818 9393 c12 -2 32 -2 45 0 12 2 2 4 -23 4 -25 0 -35 -2 -22 -4z"/>
<path d="M4813 9363 c15 -2 37 -2 50 0 12 2 0 4 -28 4 -27 0 -38 -2 -22 -4z"/>
<path d="M5023 9363 c15 -2 37 -2 50 0 12 2 0 4 -28 4 -27 0 -38 -2 -22 -4z"/>
<path d="M5518 9353 c19 -3 32 -10 32 -19 0 -17 46 -19 53 -1 3 6 6 1 6 -12 1
-28 15 -19 26 17 6 22 5 22 -72 20 -43 0 -63 -3 -45 -5z"/>
<path d="M5515 9330 c-3 -5 -1 -10 4 -10 6 0 11 5 11 10 0 6 -2 10 -4 10 -3 0
-8 -4 -11 -10z"/>
<path d="M5540 9300 c-13 -8 -12 -10 3 -10 9 0 17 5 17 10 0 12 -1 12 -20 0z"/>
<path d="M4893 9273 c59 -2 154 -2 210 0 56 1 8 3 -108 3 -115 0 -161 -2 -102
-3z"/>
<path d="M5490 9265 c-30 -12 -32 -14 -11 -14 14 -1 33 -9 43 -18 17 -15 21
-15 29 -3 12 20 7 44 -11 47 -8 1 -31 -4 -50 -12z"/>
<path d="M5420 9240 c0 -5 5 -10 10 -10 6 0 10 5 10 10 0 6 -4 10 -10 10 -5 0
-10 -4 -10 -10z"/>
<path d="M4403 9189 c-6 -6 -9 -18 -6 -25 3 -9 -2 -14 -13 -15 -17 0 -17 -1 1
-8 15 -6 22 -3 28 12 11 30 5 52 -10 36z"/>
<path d="M5658 9123 c7 -3 16 -2 19 1 4 3 -2 6 -13 5 -11 0 -14 -3 -6 -6z"/>
<path d="M5265 9050 c-19 -8 -19 -9 3 -9 12 -1 22 4 22 9 0 6 -1 10 -2 9 -2 0
-12 -4 -23 -9z"/>
<path d="M5141 8956 c7 -7 149 -10 156 -3 3 4 -31 7 -77 7 -46 0 -81 -2 -79
-4z"/>
<path d="M6062 8935 c0 -16 2 -22 5 -12 2 9 2 23 0 30 -3 6 -5 -1 -5 -18z"/>
<path d="M3569 8531 c9 -6 12 -19 9 -36 -4 -16 -2 -23 4 -17 5 5 10 18 11 29
1 20 9 21 67 8 22 -4 21 -3 -5 9 -33 16 -110 22 -86 7z"/>
<path d="M3658 8493 c7 -3 16 -2 19 1 4 3 -2 6 -13 5 -11 0 -14 -3 -6 -6z"/>
<path d="M7898 7813 c7 -3 16 -2 19 1 4 3 -2 6 -13 5 -11 0 -14 -3 -6 -6z"/>
<path d="M7963 7813 c15 -2 39 -2 55 0 15 2 2 4 -28 4 -30 0 -43 -2 -27 -4z"/>
<path d="M1540 7640 l0 -30 61 0 c50 0 60 3 55 15 -4 12 3 14 37 11 36 -3 38
-3 12 5 -24 6 -19 7 23 5 35 -2 49 0 40 6 -8 6 3 8 34 6 25 -2 44 1 41 6 -5 8
-129 0 -167 -11 -12 -3 -16 -1 -12 6 5 8 -13 11 -58 11 l-66 0 0 -30z"/>
<path d="M1868 7633 c6 -2 18 -2 25 0 6 3 1 5 -13 5 -14 0 -19 -2 -12 -5z"/>
<path d="M1168 7583 c6 -2 18 -2 25 0 6 3 1 5 -13 5 -14 0 -19 -2 -12 -5z"/>
<path d="M598 7283 c-10 -2 -18 -12 -17 -21 0 -11 2 -12 6 -4 2 6 16 12 29 12
13 0 24 5 24 10 0 10 -12 11 -42 3z"/>
<path d="M9740 6816 c0 -2 7 -7 16 -10 8 -3 12 -2 9 4 -6 10 -25 14 -25 6z"/>
<path d="M569 6472 c-12 -6 -13 -11 -3 -30 11 -23 12 -23 16 7 3 17 4 31 4 30
-1 0 -8 -3 -17 -7z"/>
</g>
</svg>
